<svg width="1777" height="993" xmlns="http://www.w3.org/2000/svg" xmlns:xlink="http://www.w3.org/1999/xlink" xml:space="preserve" overflow="hidden"><defs><clipPath id="clip0"><rect x="807" y="276" width="1777" height="993"/></clipPath></defs><g clip-path="url(#clip0)" transform="translate(-807 -276)"><rect x="808" y="277" width="1774" height="990" fill="#282828"/><g><path d="M1140.5 937.531 2520.5 937.531M1140.5 855.528 2520.5 855.528M1140.5 773.526 2520.5 773.526M1140.5 692.523 2520.5 692.523M1140.5 610.52 2520.5 610.52M1140.5 528.518 2520.5 528.518M1140.5 446.5 2520.5 446.5" stroke="#D9D9D9" stroke-width="3.4375" stroke-linejoin="round" stroke-miterlimit="10" fill="none"/></g><g><path d="M1140.5 1019.5 2520.5 1019.5" stroke="#D9D9D9" stroke-width="3.4375" stroke-linejoin="round" stroke-miterlimit="10" fill="none" fill-rule="evenodd"/></g><g><path d="M1160 997.033 1200.04 1001 1239.04 997.033 1279.04 990.032 1318.04 988.032 1357.04 981.032 1397.05 975.032 1436.05 965.032 1476.05 953.031 1515.05 945.031 1554.05 940.031 1594.05 961.032 1633.05 969.032 1673.05 963.032 1712.06 945.031 1752.06 934.031 1791.06 915.03 1830.06 899.03 1870.06 928.031 1909.06 942.031 1949.06 923.03 1988.07 913.03 2027.07 903.03 2067.07 877.029 2106.07 847.028 2146.07 841.028 2185.07 831.027 2225.07 801.026 2264.07 787.026 2303.08 761.025 2343.08 758.025 2382.08 657.022 2422.08 529 2461.08 692.023 2501 622.02" stroke="#FFD700" stroke-width="10.3125" stroke-linecap="round" stroke-linejoin="round" stroke-miterlimit="10" fill="none"/></g><g><text fill="#FFFFFF" font-family="Aptos Narrow,Aptos Narrow_MSFontService,sans-serif" font-weight="400" font-stretch="semi-condensed" font-size="41" transform="matrix(1 0 0 1 1008.22 1031)">$0.00</text></g><g><text fill="#FFFFFF" font-family="Aptos Narrow,Aptos Narrow_MSFontService,sans-serif" font-weight="400" font-stretch="semi-condensed" font-size="41" transform="matrix(1 0 0 1 966.419 949)">$500.00</text></g><g><text fill="#FFFFFF" font-family="Aptos Narrow,Aptos Narrow_MSFontService,sans-serif" font-weight="400" font-stretch="semi-condensed" font-size="41" transform="matrix(1 0 0 1 934.794 867)">$1,000.00</text></g><g><text fill="#FFFFFF" font-family="Aptos Narrow,Aptos Narrow_MSFontService,sans-serif" font-weight="400" font-stretch="semi-condensed" font-size="41" transform="matrix(1 0 0 1 934.794 785)">$1,500.00</text></g><g><text fill="#FFFFFF" font-family="Aptos Narrow,Aptos Narrow_MSFontService,sans-serif" font-weight="400" font-stretch="semi-condensed" font-size="41" transform="matrix(1 0 0 1 934.794 704)">$2,000.00</text></g><g><text fill="#FFFFFF" font-family="Aptos Narrow,Aptos Narrow_MSFontService,sans-serif" font-weight="400" font-stretch="semi-condensed" font-size="41" transform="matrix(1 0 0 1 934.794 622)">$2,500.00</text></g><g><text fill="#FFFFFF" font-family="Aptos Narrow,Aptos Narrow_MSFontService,sans-serif" font-weight="400" font-stretch="semi-condensed" font-size="41" transform="matrix(1 0 0 1 934.794 540)">$3,000.00</text></g><g><text fill="#FFFFFF" font-family="Aptos Narrow,Aptos Narrow_MSFontService,sans-serif" font-weight="400" font-stretch="semi-condensed" font-size="41" transform="matrix(1 0 0 1 934.794 458)">$3,500.00</text></g><g><text fill="#FFFFFF" font-family="Aptos Narrow,Aptos Narrow_MSFontService,sans-serif" font-weight="400" font-stretch="semi-condensed" font-size="41" transform="matrix(0.707107 -0.707107 0.707107 0.707107 1111 1132)">1990</text></g><g><text fill="#FFFFFF" font-family="Aptos Narrow,Aptos Narrow_MSFontService,sans-serif" font-weight="400" font-stretch="semi-condensed" font-size="41" transform="matrix(0.707107 -0.707107 0.707107 0.707107 1189.83 1132)">1992</text></g><g><text fill="#FFFFFF" font-family="Aptos Narrow,Aptos Narrow_MSFontService,sans-serif" font-weight="400" font-stretch="semi-condensed" font-size="41" transform="matrix(0.707107 -0.707107 0.707107 0.707107 1268.67 1132)">1994</text></g><g><text fill="#FFFFFF" font-family="Aptos Narrow,Aptos Narrow_MSFontService,sans-serif" font-weight="400" font-stretch="semi-condensed" font-size="41" transform="matrix(0.707107 -0.707107 0.707107 0.707107 1347.5 1132)">1996</text></g><g><text fill="#FFFFFF" font-family="Aptos Narrow,Aptos Narrow_MSFontService,sans-serif" font-weight="400" font-stretch="semi-condensed" font-size="41" transform="matrix(0.707107 -0.707107 0.707107 0.707107 1426.34 1132)">1998</text></g><g><text fill="#FFFFFF" font-family="Aptos Narrow,Aptos Narrow_MSFontService,sans-serif" font-weight="400" font-stretch="semi-condensed" font-size="41" transform="matrix(0.707107 -0.707107 0.707107 0.707107 1505.17 1132)">2000</text></g><g><text fill="#FFFFFF" font-family="Aptos Narrow,Aptos Narrow_MSFontService,sans-serif" font-weight="400" font-stretch="semi-condensed" font-size="41" transform="matrix(0.707107 -0.707107 0.707107 0.707107 1584 1132)">2002</text></g><g><text fill="#FFFFFF" font-family="Aptos Narrow,Aptos Narrow_MSFontService,sans-serif" font-weight="400" font-stretch="semi-condensed" font-size="41" transform="matrix(0.707107 -0.707107 0.707107 0.707107 1662.84 1132)">2004</text></g><g><text fill="#FFFFFF" font-family="Aptos Narrow,Aptos Narrow_MSFontService,sans-serif" font-weight="400" font-stretch="semi-condensed" font-size="41" transform="matrix(0.707107 -0.707107 0.707107 0.707107 1741.67 1132)">2006</text></g><g><text fill="#FFFFFF" font-family="Aptos Narrow,Aptos Narrow_MSFontService,sans-serif" font-weight="400" font-stretch="semi-condensed" font-size="41" transform="matrix(0.707107 -0.707107 0.707107 0.707107 1820.51 1132)">2008</text></g><g><text fill="#FFFFFF" font-family="Aptos Narrow,Aptos Narrow_MSFontService,sans-serif" font-weight="400" font-stretch="semi-condensed" font-size="41" transform="matrix(0.707107 -0.707107 0.707107 0.707107 1899.34 1132)">2010</text></g><g><text fill="#FFFFFF" font-family="Aptos Narrow,Aptos Narrow_MSFontService,sans-serif" font-weight="400" font-stretch="semi-condensed" font-size="41" transform="matrix(0.707107 -0.707107 0.707107 0.707107 1978.18 1132)">2012</text></g><g><text fill="#FFFFFF" font-family="Aptos Narrow,Aptos Narrow_MSFontService,sans-serif" font-weight="400" font-stretch="semi-condensed" font-size="41" transform="matrix(0.707107 -0.707107 0.707107 0.707107 2057.01 1132)">2014</text></g><g><text fill="#FFFFFF" font-family="Aptos Narrow,Aptos Narrow_MSFontService,sans-serif" font-weight="400" font-stretch="semi-condensed" font-size="41" transform="matrix(0.707107 -0.707107 0.707107 0.707107 2135.85 1132)">2016</text></g><g><text fill="#FFFFFF" font-family="Aptos Narrow,Aptos Narrow_MSFontService,sans-serif" font-weight="400" font-stretch="semi-condensed" font-size="41" transform="matrix(0.707107 -0.707107 0.707107 0.707107 2214.68 1132)">2018</text></g><g><text fill="#FFFFFF" font-family="Aptos Narrow,Aptos Narrow_MSFontService,sans-serif" font-weight="400" font-stretch="semi-condensed" font-size="41" transform="matrix(0.707107 -0.707107 0.707107 0.707107 2293.51 1132)">2020</text></g><g><text fill="#FFFFFF" font-family="Aptos Narrow,Aptos Narrow_MSFontService,sans-serif" font-weight="400" font-stretch="semi-condensed" font-size="41" transform="matrix(0.707107 -0.707107 0.707107 0.707107 2372.35 1132)">2022</text></g><g><text fill="#FFFFFF" font-family="Aptos Narrow,Aptos Narrow_MSFontService,sans-serif" font-weight="400" font-stretch="semi-condensed" font-size="41" transform="matrix(0.707107 -0.707107 0.707107 0.707107 2451.18 1132)">2024</text></g><g><text fill="#FFFFFF" font-family="Aptos Narrow,Aptos Narrow_MSFontService,sans-serif" font-weight="400" font-stretch="semi-condensed" font-size="46" transform="matrix(6.12323e-17 -1 1 6.12323e-17 908.095 888)">Annual Tax Relief</text></g><g><text fill="#FFFFFF" font-family="Aptos Narrow,Aptos Narrow_MSFontService,sans-serif" font-weight="400" font-stretch="semi-condensed" font-size="46" transform="matrix(1 0 0 1 1755.01 1196)">Tax Year</text></g><g><text fill="#FFFFFF" font-family="Aptos Narrow,Aptos Narrow_MSFontService,sans-serif" font-weight="400" font-stretch="semi-condensed" font-size="64" transform="matrix(1 0 0 1 1044.26 371)">Simulated Annual Robin Hood Tax Relief Per Worker</text></g><rect x="808.5" y="277.5" width="1774" height="990" stroke="#D9D9D9" stroke-width="3.4375" stroke-linejoin="round" stroke-miterlimit="10" fill="none"/></g></svg>