<svg width="1744" height="993" xmlns="http://www.w3.org/2000/svg" xmlns:xlink="http://www.w3.org/1999/xlink" xml:space="preserve" overflow="hidden"><defs><clipPath id="clip0"><rect x="1159" y="437" width="1744" height="993"/></clipPath></defs><g clip-path="url(#clip0)" transform="translate(-1159 -437)"><rect x="1160" y="438" width="1741" height="990" fill="#282828"/><g><path d="M1346.5 1122.54 2820.5 1122.54M1346.5 1019.53 2820.5 1019.53M1346.5 916.53 2820.5 916.53M1346.5 813.527 2820.5 813.527M1346.5 711.524 2820.5 711.524M1346.5 608.5 2820.5 608.5" stroke="#D9D9D9" stroke-width="3.4375" stroke-linejoin="round" stroke-miterlimit="10" fill="none"/></g><g><path d="M1346.5 1225.5 2820.5 1225.5" stroke="#D9D9D9" stroke-width="3.4375" stroke-linejoin="round" stroke-miterlimit="10" fill="none" fill-rule="evenodd"/></g><g><path d="M1347 1225 1348.04 1225 1350.04 1225 1351.04 1225 1353.04 1225 1354.04 1225 1356.04 1225 1357.04 1225 1359.04 1225 1360.04 1225 1362.04 1225 1363.04 1225 1364.04 1225 1366.04 1225 1367.04 1225 1369.04 1225 1370.04 1225 1372.04 1225 1373.05 1225 1375.05 1225 1376.05 1225 1378.05 1225 1379.05 1225 1381.05 1225 1382.05 1225 1384.05 1225 1385.05 1225 1387.05 1225 1388.05 1225 1390.05 1225 1391.05 1225 1392.05 1225 1394.05 1225 1395.05 1225 1397.05 1225 1398.05 1225 1400.05 1225 1401.05 1225 1403.05 1225 1404.05 1225 1406.05 1225 1407.05 1225 1409.05 1225 1410.05 1225 1412.05 1225 1413.05 1225 1415.05 1225 1416.05 1225 1418.05 1225 1419.05 1225 1420.05 1225 1422.05 1225 1423.05 1225 1425.05 1225 1426.05 1225 1428.05 1225 1429.05 1225 1431.05 1225 1432.05 1225 1434.05 1225 1435.05 1225 1437.05 1225 1438.05 1225 1440.05 1225 1441.05 1225 1443.05 1225 1444.05 1225 1445.05 1225 1447.05 1225 1448.05 1225 1450.05 1225 1451.05 1225 1453.05 1225 1454.05 1225 1456.05 1225 1457.05 1225 1459.05 1225 1460.05 1225 1462.05 1225 1463.05 1225 1465.05 1225 1466.05 1225 1468.05 1225 1469.05 1225 1471.05 1225 1472.05 1225 1473.05 1225 1475.05 1225 1476.05 1225 1478.05 1225 1479.05 1225 1481.05 1225 1482.05 1225 1484.05 1225 1485.05 1225 1487.05 1225 1488.05 1225 1490.05 1225 1491.05 1225 1493.05 1225 1494.05 1225 1496.05 1225 1497.05 1225 1498.05 1225 1500.05 1225 1501.05 1225 1503.05 1225 1504.05 1225 1506.05 1225 1507.05 1225 1509.05 1225 1510.05 1225 1512.05 1225 1513.05 1225 1515.05 1225 1516.05 1225 1518.05 1225 1519.05 1225 1521.05 1225 1522.05 1225 1524.05 1225 1525.05 1225 1526.05 1225 1528.05 1225 1529.05 1225 1531.05 1225 1532.05 1225 1534.05 1225 1535.05 1225 1537.05 1225 1538.05 1225 1540.05 1225 1541.05 1225 1543.05 1225 1544.05 1225 1546.05 1225 1547.05 1225 1549.05 1225 1550.05 1225 1552.05 1225 1553.05 1225 1554.05 1225 1556.05 1225 1557.05 1225 1559.05 1225 1560.05 1225 1562.05 1225 1563.05 1225 1565.05 1225 1566.05 1225 1568.05 1225 1569.05 1225 1571.05 1225 1572.05 1225 1574.05 1225 1575.05 1225 1577.05 1225 1578.05 1225 1579.05 1225 1581.05 1225 1582.05 1225 1584.05 1225 1585.05 1225 1587.05 1225 1588.05 1225 1590.05 1225 1591.05 1225 1593.05 1225 1594.05 1225 1596.05 1225 1597.05 1225 1599.05 1225 1600.05 1225 1602.05 1225 1603.05 1225 1605.05 1225 1606.05 1225 1607.05 1225 1609.05 1225 1610.05 1225 1612.05 1225 1613.05 1225 1615.05 1225 1616.05 1225 1618.05 1225 1619.05 1225 1621.05 1225 1622.05 1225 1624.05 1225 1625.05 1225 1627.05 1225 1628.05 1225 1630.05 1225 1631.05 1225 1633.05 1225 1634.05 1225 1635.05 1225 1637.05 1225 1638.05 1225 1640.05 1225 1641.05 1225 1643.05 1225 1644.05 1225 1646.05 1225 1647.05 1225 1649.05 1225 1650.05 1225 1652.05 1225 1653.05 1225 1655.05 1225 1656.05 1225 1658.05 1225 1659.05 1225 1660.05 1225 1662.05 1225 1663.05 1225 1665.05 1225 1666.05 1225 1668.05 1225 1669.05 1225 1671.05 1225 1672.05 1225 1674.05 1225 1675.05 1225 1677.05 1225 1678.06 1225 1680.06 1225 1681.06 1225 1683.06 1225 1684.06 1225 1686.06 1225 1687.06 1225 1688.06 1225 1690.06 1225 1691.06 1225 1693.06 1225 1694.06 1225 1696.06 1225 1697.06 1225 1699.06 1225 1700.06 1225 1702.06 1225 1703.06 1225 1705.06 1225 1706.06 1225 1708.06 1225 1709.06 1225 1711.06 1225 1712.06 1225 1714.06 1225 1715.06 1225 1716.06 1225 1718.06 1225 1719.06 1225 1721.06 1225 1722.06 1225 1724.06 1225 1725.06 1225 1727.06 1225 1728.06 1225 1730.06 1225 1731.06 1225 1733.06 1225 1734.06 1225 1736.06 1225 1737.06 1225 1739.06 1225 1740.06 1225 1741.06 1225 1743.06 1225 1744.06 1225 1746.06 1225 1747.06 1225 1749.06 1225 1750.06 1225 1752.06 1225 1753.06 1225 1755.06 1225 1756.06 1225 1758.06 1225 1759.06 1225 1761.06 1225 1762.06 1225 1764.06 1225 1765.06 1225 1767.06 1225 1768.06 1225 1769.06 1225 1771.06 1225 1772.06 1225 1774.06 1225 1775.06 1225 1777.06 1225 1778.06 1225 1780.06 1225 1781.06 1225 1783.06 1225 1784.06 1225 1786.06 1225 1787.06 1225 1789.06 1225 1790.06 1225 1792.06 1225 1793.06 1225 1795.06 1225 1796.06 1225 1797.06 1225 1799.06 1225 1800.06 1225 1802.06 1225 1803.06 1225 1805.06 1225 1806.06 1225 1808.06 1225 1809.06 1225 1811.06 1225 1812.06 1225 1814.06 1225 1815.06 1225 1817.06 1225 1818.06 1225 1820.06 1225 1821.06 1225 1822.06 1225 1824.06 1225 1825.06 1225 1827.06 1225 1828.06 1225 1830.06 1225 1831.06 1225 1833.06 1225 1834.06 1225 1836.06 1225 1837.06 1225 1839.06 1225 1840.06 1225 1842.06 1225 1843.06 1225 1845.06 1225 1846.06 1225 1848.06 1225 1849.06 1225 1850.06 1225 1852.06 1225 1853.06 1225 1855.06 1225 1856.06 1225 1858.06 1225 1859.06 1225 1861.06 1225 1862.06 1225 1864.06 1225 1865.06 1225 1867.06 1225 1868.06 1225 1870.06 1225 1871.06 1225 1873.06 1225 1874.06 1225 1876.06 1225 1877.06 1225 1878.06 1225 1880.06 1225 1881.06 1225 1883.06 1225 1884.06 1225 1886.06 1225 1887.06 1225 1889.06 1225 1890.06 1225 1892.06 1225 1893.06 1225 1895.06 1225 1896.06 1225 1898.06 1225 1899.06 1225 1901.06 1225 1902.06 1225 1903.06 1225 1905.06 1225 1906.06 1225 1908.06 1225 1909.06 1225 1911.06 1225 1912.06 1225 1914.06 1225 1915.06 1225 1917.06 1225 1918.06 1225 1920.06 1225 1921.06 1225 1923.06 1225 1924.06 1225 1926.06 1225 1927.06 1225 1929.06 1225 1930.06 1225 1931.06 1225 1933.06 1225 1934.06 1225 1936.06 1225 1937.06 1225 1939.06 1225 1940.06 1225 1942.06 1225 1943.06 1225 1945.06 1225 1946.06 1225 1948.06 1225 1949.06 1225 1951.06 1225 1952.06 1225 1954.06 1225 1955.06 1225 1957.06 1225 1958.06 1225 1959.06 1225 1961.06 1225 1962.06 1225 1964.06 1225 1965.06 1225 1967.06 1225 1968.06 1225 1970.06 1225 1971.06 1225 1973.06 1225 1974.06 1225 1976.06 1225 1977.06 1225 1979.06 1225 1980.06 1225 1982.06 1225 1983.06 1225 1984.07 1225 1986.07 1225 1987.07 1225 1989.07 1225 1990.07 1225 1992.07 1225 1993.07 1225 1995.07 1225 1996.07 1225 1998.07 1225 1999.07 1225 2001.07 1225 2002.07 1225 2004.07 1225 2005.07 1225 2007.07 1225 2008.07 1225 2010.07 1225 2011.07 1225 2012.07 1225 2014.07 1225 2015.07 1225 2017.07 1225 2018.07 1225 2020.07 1225 2021.07 1225 2023.07 1225 2024.07 1225 2026.07 1225 2027.07 1225 2029.07 1225 2030.07 1225 2032.07 1225 2033.07 1225 2035.07 1225 2036.07 1225 2038.07 1225 2039.07 1225 2040.07 1225 2042.07 1225 2043.07 1225 2045.07 1225 2046.07 1225 2048.07 1225 2049.07 1225 2051.07 1225 2052.07 1225 2054.07 1225 2055.07 1225 2057.07 1225 2058.07 1225 2060.07 1225 2061.07 1225 2063.07 1225 2064.07 1225 2065.07 1225 2067.07 1225 2068.07 1225 2070.07 1225 2071.07 1225 2073.07 1225 2074.07 1225 2076.07 1225 2077.07 1225 2079.07 1225 2080.07 1225 2082.07 1225 2083.07 1225 2085.07 1225 2086.07 1225 2088.07 1225 2089.07 1225 2091.07 1225 2092.07 1225 2093.07 1225 2095.07 1225 2096.07 1225 2098.07 1225 2099.07 1225 2101.07 1225 2102.07 1225 2104.07 1225 2105.07 1225 2107.07 1225 2108.07 1225 2110.07 1225 2111.07 1225 2113.07 1225 2114.07 1225 2116.07 1225 2117.07 1225 2119.07 1225 2120.07 1225 2121.07 1225 2123.07 1225 2124.07 1225 2126.07 1225 2127.07 1225 2129.07 1225 2130.07 1225 2132.07 1225 2133.07 1225 2135.07 1225 2136.07 1225 2138.07 1225 2139.07 1225 2141.07 1225 2142.07 1225 2144.07 1225 2145.07 1225 2146.07 1225 2148.07 1225 2149.07 1225 2151.07 1225 2152.07 1225 2154.07 1225 2155.07 1225 2157.07 1225 2158.07 1225 2160.07 1225 2161.07 1225 2163.07 1225 2164.07 1225 2166.07 1225 2167.07 1225 2169.07 1225 2170.07 1225 2172.07 1225 2173.07 1225 2174.07 1225 2176.07 1225 2177.07 1225 2179.07 1225 2180.07 1225 2182.07 1225 2183.07 1225 2185.07 1225 2186.07 1225 2188.07 1225 2189.07 1225 2191.07 1225 2192.07 1225 2194.07 1225 2195.07 1225 2197.07 1225 2198.07 1225 2199.07 1225 2201.07 1225 2202.07 1225 2204.07 1225 2205.07 1225 2207.07 1225 2208.07 1225 2210.07 1225 2211.07 1225 2213.07 1225 2214.07 1225 2216.07 1225 2217.07 1225 2219.07 1225 2220.07 1225 2222.07 1225 2223.07 1225 2225.07 1225 2226.07 1225 2227.07 1225 2229.07 1225 2230.07 1225 2232.07 1225 2233.07 1225 2235.07 1225 2236.07 1225 2238.07 1225 2239.07 1225 2241.07 1225 2242.07 1225 2244.07 1225 2245.07 1225 2247.07 1225 2248.07 1225 2250.07 1225 2251.07 1225 2253.07 1225 2254.07 1225 2255.07 1225 2257.07 1225 2258.07 1225 2260.07 1225 2261.07 1225 2263.07 1225 2264.07 1225 2266.07 1225 2267.07 1225 2269.07 1225 2270.07 1225 2272.07 1225 2273.07 1225 2275.07 1225 2276.07 1225 2278.07 1225 2279.07 1225 2280.07 1225 2282.07 1225 2283.07 1225 2285.07 1225 2286.07 1225 2288.07 1225 2289.08 1225 2291.08 1225 2292.08 1225 2294.08 1225 2295.08 1225 2297.08 1225 2298.08 1225 2300.08 1225 2301.08 1225 2303.08 1225 2304.08 1225 2306.08 1225 2307.08 1225 2308.08 1225 2310.08 1225 2311.08 1225 2313.08 1225 2314.08 1225 2316.08 1225 2317.08 1225 2319.08 1225 2320.08 1225 2322.08 1225 2323.08 1225 2325.08 1225 2326.08 1225 2328.08 1225 2329.08 1225 2331.08 1225 2332.08 1225 2334.08 1225 2335.08 1225 2336.08 1225 2338.08 1225 2339.08 1225 2341.08 1225 2342.08 1225 2344.08 1225 2345.08 1225 2347.08 1225 2348.08 1225 2350.08 1225 2351.08 1225 2353.08 1225 2354.08 1225 2356.08 1225 2357.08 1225 2359.08 1225 2360.08 1225 2361.08 1225 2363.08 1225 2364.08 1225 2366.08 1225 2367.08 1225 2369.08 1225 2370.08 1225 2372.08 1225 2373.08 1225 2375.08 1225 2376.08 1225 2378.08 1225 2379.08 1225 2381.08 1225 2382.08 1225 2384.08 1225 2385.08 1225 2387.08 1225 2388.08 1225 2389.08 1225 2391.08 1225 2392.08 1225 2394.08 1225 2395.08 1225 2397.08 1225 2398.08 1225 2400.08 1225 2401.08 1225 2403.08 1225 2404.08 1225 2406.08 1225 2407.08 1225 2409.08 1225 2410.08 1225 2412.08 1225 2413.08 1225 2415.08 1225 2416.08 1225 2417.08 1225 2419.08 1225 2420.08 1225 2422.08 1225 2423.08 1225 2425.08 1225 2426.08 1225 2428.08 1225 2429.08 1225 2431.08 1225 2432.08 1225 2434.08 1225 2435.08 1225 2437.08 1225 2438.08 1225 2440.08 1225 2441.08 1225 2442.08 1225 2444.08 1225 2445.08 1225 2447.08 1225 2448.08 1225 2450.08 1225 2451.08 1225 2453.08 1225 2454.08 1225 2456.08 1225 2457.08 1225 2459.08 1225 2460.08 1225 2462.08 1225 2463.08 1225 2465.08 1225 2466.08 1225 2468.08 1225 2469.08 1225 2470.08 1225 2472.08 1225 2473.08 1225 2475.08 1225 2476.08 1225 2478.08 1225 2479.08 1225 2481.08 1225 2482.08 1225 2484.08 1225 2485.08 1225 2487.08 1225 2488.08 1225 2490.08 1225 2491.08 1225 2493.08 1225 2494.08 1225 2496.08 1225 2497.08 1225 2498.08 1225 2500.08 1225 2501.08 1225 2503.08 1225 2504.08 1225 2506.08 1225 2507.08 1225 2509.08 1225 2510.08 1225 2512.08 1225 2513.08 1225 2515.08 1225 2516.08 1225 2518.08 1225 2519.08 1225 2521.08 1225 2522.08 1225 2523.08 1225 2525.08 1225 2526.08 1225 2528.08 1225 2529.08 1225 2531.08 1225 2532.08 1225 2534.08 1225 2535.08 1225 2537.08 1225 2538.08 1225 2540.08 1225 2541.08 1225 2543.08 1225 2544.08 1225 2546.08 1225 2547.08 1225 2549.08 1225 2550.08 1225 2551.08 1225 2553.08 1225 2554.08 1225 2556.08 1225 2557.08 1225 2559.08 1225 2560.08 1225 2562.08 1225 2563.08 1225 2565.08 1225 2566.08 1225 2568.08 1225 2569.08 1225 2571.08 1225 2572.08 1225 2574.08 1225 2575.08 1225 2577.08 1225 2578.08 1225 2579.08 1225 2581.08 1225 2582.08 1225 2584.08 1225 2585.08 1225 2587.08 1225 2588.08 1225 2590.08 1225 2591.08 1225 2593.08 1225 2594.08 1225 2596.08 1225 2597.09 1225 2599.09 1225 2600.09 1225 2602.09 1225 2603.09 1225 2604.09 1225 2606.09 1225 2607.09 1225 2609.09 1225 2610.09 1225 2612.09 1225 2613.09 1225 2615.09 1225 2616.09 1225 2618.09 1225 2619.09 1225 2621.09 1225 2622.09 1225 2624.09 1225 2625.09 1225 2627.09 1225 2628.09 1225 2630.09 1225 2631.09 1225 2632.09 1225 2634.09 1225 2635.09 1225 2637.09 1225 2638.09 1225 2640.09 1225 2641.09 1225 2643.09 1225 2644.09 1225 2646.09 1225 2647.09 1225 2649.09 1225 2650.09 1225 2652.09 1225 2653.09 1225 2655.09 1225 2656.09 1225 2658.09 1225 2659.09 1225 2660.09 1225 2662.09 1225 2663.09 1225 2665.09 1225 2666.09 1225 2668.09 1225 2669.09 1225 2671.09 1225 2672.09 1225 2674.09 1225 2675.09 1225 2677.09 1225 2678.09 1225 2680.09 1225 2681.09 1225 2683.09 1225 2684.09 1225 2685.09 1225 2687.09 1225 2688.09 1225 2690.09 1225 2691.09 1225 2693.09 1225 2694.09 1225 2696.09 1225 2697.09 1225 2699.09 1225 2700.09 1225 2702.09 1225 2703.09 1225 2705.09 1225 2706.09 1225 2708.09 1225 2709.09 1225 2711.09 1225 2712.09 1225 2713.09 1225 2715.09 1225 2716.09 1225 2718.09 1225 2719.09 1225 2721.09 1225 2722.09 1225 2724.09 1225 2725.09 1225 2727.09 1225 2728.09 1225 2730.09 1225 2731.09 1225 2733.09 1225 2734.09 1225 2736.09 1225 2737.09 1225 2739.09 1225 2740.09 1225 2741.09 1225 2743.09 1225 2744.09 1225 2746.09 1225 2747.09 1225 2749.09 1225 2750.09 1225 2752.09 1225 2753.09 1225 2755.09 1225 2756.09 1225 2758.09 1225 2759.09 1225 2761.09 1225 2762.09 1225 2764.09 1225 2765.09 1225 2766.09 1225 2768.09 1225 2769.09 1225 2771.09 1225 2772.09 1225 2774.09 1225 2775.09 711 2777.09 711 2778.09 711 2780.09 711 2781.09 711 2783.09 711 2784.09 711 2786.09 711 2787.09 711 2789.09 711 2790.09 711 2792.09 711 2793.09 711 2794.09 711 2796.09 711 2797.09 711 2799.09 711 2800.09 711 2802.09 711 2803.09 711 2805.09 711 2806.09 711 2808.09 711 2809.09 711 2811.09 711 2812.09 711 2814.09 711 2815.09 711 2817.09 711 2818.09 711 2820 711" stroke="#FFD700" stroke-width="10.3125" stroke-linecap="round" stroke-linejoin="round" stroke-miterlimit="10" fill="none"/></g><g><text fill="#FFFFFF" font-family="Aptos Narrow,Aptos Narrow_MSFontService,sans-serif" font-weight="400" font-stretch="semi-condensed" font-size="41" transform="matrix(1 0 0 1 1287.14 1237)">0</text></g><g><text fill="#FFFFFF" font-family="Aptos Narrow,Aptos Narrow_MSFontService,sans-serif" font-weight="400" font-stretch="semi-condensed" font-size="41" transform="matrix(1 0 0 1 1287.14 1134)">1</text></g><g><text fill="#FFFFFF" font-family="Aptos Narrow,Aptos Narrow_MSFontService,sans-serif" font-weight="400" font-stretch="semi-condensed" font-size="41" transform="matrix(1 0 0 1 1287.14 1031)">2</text></g><g><text fill="#FFFFFF" font-family="Aptos Narrow,Aptos Narrow_MSFontService,sans-serif" font-weight="400" font-stretch="semi-condensed" font-size="41" transform="matrix(1 0 0 1 1287.14 928)">3</text></g><g><text fill="#FFFFFF" font-family="Aptos Narrow,Aptos Narrow_MSFontService,sans-serif" font-weight="400" font-stretch="semi-condensed" font-size="41" transform="matrix(1 0 0 1 1287.14 825)">4</text></g><g><text fill="#FFFFFF" font-family="Aptos Narrow,Aptos Narrow_MSFontService,sans-serif" font-weight="400" font-stretch="semi-condensed" font-size="41" transform="matrix(1 0 0 1 1287.14 723)">5</text></g><g><text fill="#FFFFFF" font-family="Aptos Narrow,Aptos Narrow_MSFontService,sans-serif" font-weight="400" font-stretch="semi-condensed" font-size="41" transform="matrix(1 0 0 1 1287.14 620)">6</text></g><g><text fill="#FFFFFF" font-family="Aptos Narrow,Aptos Narrow_MSFontService,sans-serif" font-weight="400" font-stretch="semi-condensed" font-size="41" transform="matrix(1 0 0 1 1336.41 1290)">0</text></g><g><text fill="#FFFFFF" font-family="Aptos Narrow,Aptos Narrow_MSFontService,sans-serif" font-weight="400" font-stretch="semi-condensed" font-size="41" transform="matrix(1 0 0 1 1473.23 1290)">10</text></g><g><text fill="#FFFFFF" font-family="Aptos Narrow,Aptos Narrow_MSFontService,sans-serif" font-weight="400" font-stretch="semi-condensed" font-size="41" transform="matrix(1 0 0 1 1620.5 1290)">20</text></g><g><text fill="#FFFFFF" font-family="Aptos Narrow,Aptos Narrow_MSFontService,sans-serif" font-weight="400" font-stretch="semi-condensed" font-size="41" transform="matrix(1 0 0 1 1767.78 1290)">30</text></g><g><text fill="#FFFFFF" font-family="Aptos Narrow,Aptos Narrow_MSFontService,sans-serif" font-weight="400" font-stretch="semi-condensed" font-size="41" transform="matrix(1 0 0 1 1915.05 1290)">40</text></g><g><text fill="#FFFFFF" font-family="Aptos Narrow,Aptos Narrow_MSFontService,sans-serif" font-weight="400" font-stretch="semi-condensed" font-size="41" transform="matrix(1 0 0 1 2062.33 1290)">50</text></g><g><text fill="#FFFFFF" font-family="Aptos Narrow,Aptos Narrow_MSFontService,sans-serif" font-weight="400" font-stretch="semi-condensed" font-size="41" transform="matrix(1 0 0 1 2209.6 1290)">60</text></g><g><text fill="#FFFFFF" font-family="Aptos Narrow,Aptos Narrow_MSFontService,sans-serif" font-weight="400" font-stretch="semi-condensed" font-size="41" transform="matrix(1 0 0 1 2356.87 1290)">70</text></g><g><text fill="#FFFFFF" font-family="Aptos Narrow,Aptos Narrow_MSFontService,sans-serif" font-weight="400" font-stretch="semi-condensed" font-size="41" transform="matrix(1 0 0 1 2504.15 1290)">80</text></g><g><text fill="#FFFFFF" font-family="Aptos Narrow,Aptos Narrow_MSFontService,sans-serif" font-weight="400" font-stretch="semi-condensed" font-size="41" transform="matrix(1 0 0 1 2651.42 1290)">90</text></g><g><text fill="#FFFFFF" font-family="Aptos Narrow,Aptos Narrow_MSFontService,sans-serif" font-weight="400" font-stretch="semi-condensed" font-size="41" transform="matrix(1 0 0 1 2788.24 1290)">100</text></g><g><text fill="#FFFFFF" font-family="Aptos Narrow,Aptos Narrow_MSFontService,sans-serif" font-weight="400" font-stretch="semi-condensed" font-size="46" transform="matrix(6.12323e-17 -1 1 6.12323e-17 1260.44 1045)">RMD Yield (%)</text></g><g><text fill="#FFFFFF" font-family="Aptos Narrow,Aptos Narrow_MSFontService,sans-serif" font-weight="400" font-stretch="semi-condensed" font-size="46" transform="matrix(1 0 0 1 1852.21 1358)">Percentile for Market Cap</text></g><g><text fill="#FFFFFF" font-family="Aptos Narrow,Aptos Narrow_MSFontService,sans-serif" font-weight="400" font-stretch="semi-condensed" font-size="64" transform="matrix(1 0 0 1 1366.57 533)">Required Minimum Dividend Tax Rate vs. Market Cap</text></g><rect x="1160.5" y="438.5" width="1741" height="990" stroke="#D9D9D9" stroke-width="3.4375" stroke-linejoin="round" stroke-miterlimit="10" fill="none"/></g></svg>