<svg width="1653" height="993" xmlns="http://www.w3.org/2000/svg" xmlns:xlink="http://www.w3.org/1999/xlink" xml:space="preserve" overflow="hidden"><defs><clipPath id="clip0"><rect x="3009" y="743" width="1653" height="993"/></clipPath></defs><g clip-path="url(#clip0)" transform="translate(-3009 -743)"><rect x="3010" y="744" width="1650" height="990" fill="#FFFFFF"/><g><path d="M3227.5 1222.54 4578.5 1222.54M3227.5 914.5 4578.5 914.5" stroke="#D9D9D9" stroke-width="3.4375" stroke-linejoin="round" stroke-miterlimit="10" fill="none"/></g><g><path d="M3227.5 1531.5 4578.5 1531.5" stroke="#D9D9D9" stroke-width="3.4375" stroke-linejoin="round" stroke-miterlimit="10" fill="none" fill-rule="evenodd"/></g><g><path d="M3228 1531 3229.11 1531 3230.11 1531 3232.11 1531 3233.11 1531 3234.11 1531 3236.11 1531 3237.11 1531 3238.11 1531 3240.11 1531 3241.11 1531 3243.11 1531 3244.11 1531 3245.11 1531 3247.11 1531 3248.11 1531 3249.11 1531 3251.11 1531 3252.11 1531 3253.11 1531 3255.11 1531 3256.11 1531 3257.11 1531 3259.11 1531 3260.11 1531 3261.11 1531 3263.11 1531 3264.11 1531 3265.11 1531 3267.11 1531 3268.11 1531 3270.11 1531 3271.11 1531 3272.11 1531 3274.11 1531 3275.11 1531 3276.11 1531 3278.11 1531 3279.11 1531 3280.11 1531 3282.11 1531 3283.11 1531 3284.11 1531 3286.11 1531 3287.11 1531 3288.11 1531 3290.11 1531 3291.11 1531 3292.11 1531 3294.11 1531 3295.11 1531 3297.11 1531 3298.11 1531 3299.11 1531 3301.11 1531 3302.11 1531 3303.11 1531 3305.11 1531 3306.11 1531 3307.11 1531 3309.11 1531 3310.11 1531 3311.11 1531 3313.11 1531 3314.11 1531 3315.11 1531 3317.11 1531 3318.11 1531 3319.11 1531 3321.11 1531 3322.11 1531 3324.11 1531 3325.11 1531 3326.11 1531 3328.11 1531 3329.11 1531 3330.11 1531 3332.11 1531 3333.11 1531 3334.11 1531 3336.11 1531 3337.11 1531 3338.11 1531 3340.11 1531 3341.11 1531 3342.11 1531 3344.11 1531 3345.11 1531 3346.11 1531 3348.11 1531 3349.11 1531 3351.11 1531 3352.11 1531 3353.11 1531 3355.11 1531 3356.11 1531 3357.11 1531 3359.11 1531 3360.11 1531 3361.11 1531 3363.11 1531 3364.11 1531 3365.11 1531 3367.11 1531 3368.11 1531 3369.11 1531 3371.11 1531 3372.11 1531 3373.11 1531 3375.11 1531 3376.11 1531 3378.11 1531 3379.11 1531 3380.11 1531 3382.11 1531 3383.11 1531 3384.11 1531 3386.11 1531 3387.11 1531 3388.11 1531 3390.11 1531 3391.11 1531 3392.11 1531 3394.11 1531 3395.11 1531 3396.11 1531 3398.11 1531 3399.11 1531 3400.11 1531 3402.11 1531 3403.11 1531 3405.11 1531 3406.11 1531 3407.11 1531 3409.11 1531 3410.11 1531 3411.11 1531 3413.11 1531 3414.11 1531 3415.11 1531 3417.11 1531 3418.11 1531 3419.11 1531 3421.11 1531 3422.11 1531 3423.11 1531 3425.11 1531 3426.11 1531 3427.11 1531 3429.11 1531 3430.11 1531 3432.11 1531 3433.11 1531 3434.11 1531 3436.11 1531 3437.11 1531 3438.11 1531 3440.11 1531 3441.11 1531 3442.11 1531 3444.11 1531 3445.11 1531 3446.11 1531 3448.11 1531 3449.11 1531 3450.11 1531 3452.11 1531 3453.11 1531 3454.11 1531 3456.11 1531 3457.11 1531 3459.11 1531 3460.11 1531 3461.11 1531 3463.11 1531 3464.11 1531 3465.11 1531 3467.11 1531 3468.11 1531 3469.11 1531 3471.11 1531 3472.11 1531 3473.11 1531 3475.11 1531 3476.11 1531 3477.11 1531 3479.11 1531 3480.11 1531 3481.11 1531 3483.11 1531 3484.11 1531 3486.11 1531 3487.11 1531 3488.11 1531 3490.11 1531 3491.11 1531 3492.11 1531 3494.11 1531 3495.11 1531 3496.11 1531 3498.11 1531 3499.11 1531 3500.11 1531 3502.11 1531 3503.11 1531 3504.11 1531 3506.12 1531 3507.12 1531 3509.12 1531 3510.12 1531 3511.12 1531 3513.12 1531 3514.12 1531 3515.12 1531 3517.12 1531 3518.12 1531 3519.12 1531 3521.12 1531 3522.12 1531 3523.12 1531 3525.12 1531 3526.12 1531 3527.12 1531 3529.12 1531 3530.12 1531 3531.12 1531 3533.12 1531 3534.12 1531 3536.12 1531 3537.12 1531 3538.12 1531 3540.12 1531 3541.12 1531 3542.12 1531 3544.12 1531 3545.12 1531 3546.12 1531 3548.12 1531 3549.12 1531 3550.12 1531 3552.12 1531 3553.12 1531 3554.12 1531 3556.12 1531 3557.12 1531 3558.12 1531 3560.12 1531 3561.12 1531 3563.12 1531 3564.12 1531 3565.12 1531 3567.12 1531 3568.12 1531 3569.12 1531 3571.12 1531 3572.12 1531 3573.12 1531 3575.12 1531 3576.12 1531 3577.12 1531 3579.12 1531 3580.12 1531 3581.12 1531 3583.12 1531 3584.12 1531 3585.12 1531 3587.12 1531 3588.12 1531 3590.12 1531 3591.12 1531 3592.12 1531 3594.12 1531 3595.12 1531 3596.12 1531 3598.12 1531 3599.12 1531 3600.12 1531 3602.12 1531 3603.12 1531 3604.12 1531 3606.12 1531 3607.12 1531 3608.12 1531 3610.12 1531 3611.12 1531 3612.12 1531 3614.12 1531 3615.12 1531 3617.12 1531 3618.12 1531 3619.12 1531 3621.12 1531 3622.12 1531 3623.12 1531 3625.12 1531 3626.12 1531 3627.12 1531 3629.12 1531 3630.12 1531 3631.12 1531 3633.12 1531 3634.12 1531 3635.12 1531 3637.12 1531 3638.12 1531 3639.12 1531 3641.12 1531 3642.12 1531 3644.12 1531 3645.12 1531 3646.12 1531 3648.12 1531 3649.12 1531 3650.12 1531 3652.12 1531 3653.12 1531 3654.12 1531 3656.12 1531 3657.12 1531 3658.12 1531 3660.12 1531 3661.12 1531 3662.12 1531 3664.12 1531 3665.12 1531 3666.12 1531 3668.12 1531 3669.12 1531 3671.12 1531 3672.12 1531 3673.12 1531 3675.12 1531 3676.12 1531 3677.12 1531 3679.12 1531 3680.12 1531 3681.12 1531 3683.12 1531 3684.12 1531 3685.12 1531 3687.12 1531 3688.12 1531 3689.12 1531 3691.12 1531 3692.12 1531 3693.12 1531 3695.12 1531 3696.12 1531 3698.12 1531 3699.12 1531 3700.12 1531 3702.12 1531 3703.12 1531 3704.12 1531 3706.12 1531 3707.12 1531 3708.12 1531 3710.12 1531 3711.12 1531 3712.12 1531 3714.12 1531 3715.12 1531 3716.12 1531 3718.12 1531 3719.12 1531 3720.12 1531 3722.12 1531 3723.12 1531 3725.12 1531 3726.12 1531 3727.12 1531 3729.12 1531 3730.12 1531 3731.12 1531 3733.12 1531 3734.12 1531 3735.12 1531 3737.12 1531 3738.12 1531 3739.12 1531 3741.12 1531 3742.12 1531 3743.12 1531 3745.12 1531 3746.12 1531 3747.12 1531 3749.12 1531 3750.12 1531 3752.12 1531 3753.12 1531 3754.12 1531 3756.12 1531 3757.12 1531 3758.12 1531 3760.12 1531 3761.12 1531 3762.12 1531 3764.12 1531 3765.12 1531 3766.12 1531 3768.12 1531 3769.12 1531 3770.12 1531 3772.12 1531 3773.12 1531 3774.12 1531 3776.12 1531 3777.12 1531 3779.12 1531 3780.12 1531 3781.12 1531 3783.12 1531 3784.12 1531 3785.12 1531 3787.12 1531 3788.12 1531 3789.12 1531 3791.12 1531 3792.12 1531 3793.12 1531 3795.12 1531 3796.12 1531 3797.12 1531 3799.12 1531 3800.12 1531 3801.12 1531 3803.12 1531 3804.12 1531 3806.12 1531 3807.12 1531 3808.12 1531 3810.12 1531 3811.12 1531 3812.12 1531 3814.13 1531 3815.13 1531 3816.13 1531 3818.13 1531 3819.13 1531 3820.13 1531 3822.13 1531 3823.13 1531 3824.13 1531 3826.13 1531 3827.13 1531 3828.13 1531 3830.13 1531 3831.13 1531 3833.13 1531 3834.13 1531 3835.13 1531 3837.13 1531 3838.13 1531 3839.13 1531 3841.13 1531 3842.13 1531 3843.13 1531 3845.13 1531 3846.13 1531 3847.13 1531 3849.13 1531 3850.13 1531 3851.13 1531 3853.13 1531 3854.13 1531 3855.13 1531 3857.13 1531 3858.13 1531 3860.13 1531 3861.13 1531 3862.13 1531 3864.13 1531 3865.13 1531 3866.13 1531 3868.13 1531 3869.13 1531 3870.13 1531 3872.13 1531 3873.13 1531 3874.13 1531 3876.13 1531 3877.13 1531 3878.13 1531 3880.13 1531 3881.13 1531 3882.13 1531 3884.13 1531 3885.13 1531 3887.13 1531 3888.13 1531 3889.13 1531 3891.13 1531 3892.13 1531 3893.13 1531 3895.13 1531 3896.13 1531 3897.13 1531 3899.13 1531 3900.13 1531 3901.13 1531 3903.13 1531 3904.13 1531 3905.13 1531 3907.13 1531 3908.13 1531 3909.13 1531 3911.13 1531 3912.13 1531 3914.13 1531 3915.13 1531 3916.13 1531 3918.13 1531 3919.13 1531 3920.13 1531 3922.13 1531 3923.13 1531 3924.13 1531 3926.13 1531 3927.13 1531 3928.13 1531 3930.13 1531 3931.13 1531 3932.13 1531 3934.13 1531 3935.13 1531 3936.13 1531 3938.13 1531 3939.13 1531 3941.13 1531 3942.13 1531 3943.13 1531 3945.13 1531 3946.13 1531 3947.13 1531 3949.13 1531 3950.13 1531 3951.13 1531 3953.13 1531 3954.13 1531 3955.13 1531 3957.13 1531 3958.13 1531 3959.13 1531 3961.13 1531 3962.13 1531 3963.13 1531 3965.13 1531 3966.13 1531 3968.13 1531 3969.13 1531 3970.13 1531 3972.13 1531 3973.13 1531 3974.13 1531 3976.13 1531 3977.13 1531 3978.13 1531 3980.13 1531 3981.13 1531 3982.13 1531 3984.13 1531 3985.13 1531 3986.13 1531 3988.13 1531 3989.13 1531 3990.13 1531 3992.13 1531 3993.13 1531 3995.13 1531 3996.13 1531 3997.13 1531 3999.13 1531 4000.13 1531 4001.13 1531 4003.13 1531 4004.13 1531 4005.13 1531 4007.13 1531 4008.13 1531 4009.13 1531 4011.13 1531 4012.13 1531 4013.13 1531 4015.13 1531 4016.13 1531 4017.13 1531 4019.13 1531 4020.13 1531 4022.13 1531 4023.13 1531 4024.13 1531 4026.13 1531 4027.13 1531 4028.13 1531 4030.13 1531 4031.13 1531 4032.13 1531 4034.13 1531 4035.13 1531 4036.13 1531 4038.13 1531 4039.13 1531 4040.13 1531 4042.13 1531 4043.13 1531 4044.13 1531 4046.13 1531 4047.13 1531 4049.13 1531 4050.13 1531 4051.13 1531 4053.13 1531 4054.13 1531 4055.13 1531 4057.13 1531 4058.13 1531 4059.13 1531 4061.13 1531 4062.13 1531 4063.13 1531 4065.13 1531 4066.13 1531 4067.13 1531 4069.13 1531 4070.13 1531 4071.13 1531 4073.13 1531 4074.13 1531 4076.13 1531 4077.13 1531 4078.13 1531 4080.13 1531 4081.13 1531 4082.13 1531 4084.13 1531 4085.13 1531 4086.13 1531 4088.13 1531 4089.13 1531 4090.13 1531 4092.13 1531 4093.13 1531 4094.13 1531 4096.13 1531 4097.13 1531 4098.13 1531 4100.13 1531 4101.13 1531 4103.13 1531 4104.13 1531 4105.13 1531 4107.13 1531 4108.13 1531 4109.13 1531 4111.13 1531 4112.13 1531 4113.13 1531 4115.14 1531 4116.14 1531 4117.14 1531 4119.14 1531 4120.14 1531 4121.14 1531 4123.14 1531 4124.14 1531 4125.14 1531 4127.14 1531 4128.14 1531 4130.14 1531 4131.14 1531 4132.14 1531 4134.14 1531 4135.14 1531 4136.14 1531 4138.14 1531 4139.14 1531 4140.14 1531 4142.14 1531 4143.14 1531 4144.14 1531 4146.14 1531 4147.14 1531 4148.14 1531 4150.14 1531 4151.14 1531 4152.14 1531 4154.14 1531 4155.14 1531 4157.14 1531 4158.14 1531 4159.14 1531 4161.14 1531 4162.14 1531 4163.14 1531 4165.14 1531 4166.14 1531 4167.14 1531 4169.14 1531 4170.14 1531 4171.14 1531 4173.14 1531 4174.14 1531 4175.14 1531 4177.14 1531 4178.14 1531 4179.14 1531 4181.14 1531 4182.14 1531 4184.14 1531 4185.14 1531 4186.14 1531 4188.14 1531 4189.14 1531 4190.14 1531 4192.14 1531 4193.14 1531 4194.14 1531 4196.14 1531 4197.14 1531 4198.14 1531 4200.14 1531 4201.14 1531 4202.14 1531 4204.14 1531 4205.14 1531 4206.14 1531 4208.14 1531 4209.14 1531 4211.14 1531 4212.14 1531 4213.14 1531 4215.14 1531 4216.14 1531 4217.14 1531 4219.14 1531 4220.14 1531 4221.14 1531 4223.14 1531 4224.14 1531 4225.14 1531 4227.14 1531 4228.14 1531 4229.14 1531 4231.14 1531 4232.14 1531 4233.14 1531 4235.14 1531 4236.14 1531 4238.14 1531 4239.14 1531 4240.14 1531 4242.14 1531 4243.14 1531 4244.14 1531 4246.14 1531 4247.14 1531 4248.14 1531 4250.14 1531 4251.14 1531 4252.14 1531 4254.14 1531 4255.14 1531 4256.14 1531 4258.14 1531 4259.14 1531 4260.14 1531 4262.14 1531 4263.14 1531 4265.14 1531 4266.14 1531 4267.14 1531 4269.14 1531 4270.14 1531 4271.14 1531 4273.14 1531 4274.14 1531 4275.14 1531 4277.14 1531 4278.14 1531 4279.14 1531 4281.14 1531 4282.14 1531 4283.14 1531 4285.14 1531 4286.14 1531 4287.14 1531 4289.14 1531 4290.14 1531 4292.14 1531 4293.14 1531 4294.14 1531 4296.14 1531 4297.14 1531 4298.14 1531 4300.14 1531 4301.14 1531 4302.14 1531 4304.14 1531 4305.14 1531 4306.14 1531 4308.14 1531 4309.14 1531 4310.14 1531 4312.14 1531 4313.14 1531 4314.14 1531 4316.14 1531 4317.14 1531 4319.14 1531 4320.14 1531 4321.14 1531 4323.14 1531 4324.14 1531 4325.14 1531 4327.14 1531 4328.14 1531 4329.14 1531 4331.14 1531 4332.14 1531 4333.14 1531 4335.14 1531 4336.14 1531 4337.14 1531 4339.14 1531 4340.14 1531 4341.14 1531 4343.14 1531 4344.14 1531 4346.14 1531 4347.14 1531 4348.14 1531 4350.14 1531 4351.14 1531 4352.14 1531 4354.14 1531 4355.14 1531 4356.14 1531 4358.14 1531 4359.14 1531 4360.14 1531 4362.14 1531 4363.14 1531 4364.14 1531 4366.14 1531 4367.14 1531 4368.14 1531 4370.14 1531 4371.14 1531 4373.14 1531 4374.14 1531 4375.14 1531 4377.14 1531 4378.14 1531 4379.14 1531 4381.14 1531 4382.14 1531 4383.14 1531 4385.14 1531 4386.14 1531 4387.14 1531 4389.14 1531 4390.14 1531 4391.14 1531 4393.14 1531 4394.14 1531 4395.14 1531 4397.14 1531 4398.14 1531 4400.14 1531 4401.14 1531 4402.14 1531 4404.14 1531 4405.14 1531 4406.14 1531 4408.14 1531 4409.14 1531 4410.14 1531 4412.14 1531 4413.15 1531 4414.15 1531 4416.15 1531 4417.15 1531 4418.15 1531 4420.15 1531 4421.15 1531 4422.15 1531 4424.15 1531 4425.15 1531 4427.15 1531 4428.15 1531 4429.15 1531 4431.15 1531 4432.15 1531 4433.15 1531 4435.15 1531 4436.15 1531 4437.15 1531 4439.15 1531 4440.15 1531 4441.15 1531 4443.15 1531 4444.15 1531 4445.15 1531 4447.15 1531 4448.15 1531 4449.15 1531 4451.15 1531 4452.15 1531 4454.15 1531 4455.15 1531 4456.15 1531 4458.15 1531 4459.15 1531 4460.15 1531 4462.15 1531 4463.15 1531 4464.15 1531 4466.15 1531 4467.15 1531 4468.15 1531 4470.15 1531 4471.15 1531 4472.15 1531 4474.15 1531 4475.15 1531 4476.15 1531 4478.15 1531 4479.15 1531 4481.15 1531 4482.15 1531 4483.15 1531 4485.15 1531 4486.15 1531 4487.15 1531 4489.15 1531 4490.15 1531 4491.15 1531 4493.15 1531 4494.15 1531 4495.15 1531 4497.15 1531 4498.15 1531 4499.15 1531 4501.15 1531 4502.15 1531 4503.15 1531 4505.15 1531 4506.15 1531 4508.15 1531 4509.15 1531 4510.15 1531 4512.15 1531 4513.15 1531 4514.15 1531 4516.15 1531 4517.15 1531 4518.15 1531 4520.15 1531 4521.15 1531 4522.15 1531 4524.15 1531 4525.15 1531 4526.15 1531 4528.15 1531 4529.15 1531 4530.15 1531 4532.15 1531 4533.15 1531 4535.15 1531 4536.15 1531 4537.15 1531 4539.15 1531 4540.15 1531 4541.15 1531 4543.15 1531 4544.15 1531 4545.15 1531 4547.15 1531 4548.15 1531 4549.15 1531 4551.15 1531 4552.15 1531 4553.15 1531 4555.15 1531 4556.15 1531 4557.15 1531 4559.15 1531 4560.15 1531 4562.15 1531 4563.15 1531 4564.15 914 4566.15 914 4567.15 914 4568.15 914 4570.15 914 4571.15 914 4572.15 914 4574.15 914 4575.15 914 4576.15 914 4578 914" stroke="#156082" stroke-width="10.3125" stroke-linecap="round" stroke-linejoin="round" stroke-miterlimit="10" fill="none"/></g><g><text fill="#595959" font-family="Aptos Narrow,Aptos Narrow_MSFontService,sans-serif" font-weight="400" font-stretch="semi-condensed" font-size="41" transform="matrix(1 0 0 1 3168.14 1543)">0</text></g><g><text fill="#595959" font-family="Aptos Narrow,Aptos Narrow_MSFontService,sans-serif" font-weight="400" font-stretch="semi-condensed" font-size="41" transform="matrix(1 0 0 1 3136.51 1234)">0.5</text></g><g><text fill="#595959" font-family="Aptos Narrow,Aptos Narrow_MSFontService,sans-serif" font-weight="400" font-stretch="semi-condensed" font-size="41" transform="matrix(1 0 0 1 3168.14 926)">1</text></g><g><text fill="#595959" font-family="Aptos Narrow,Aptos Narrow_MSFontService,sans-serif" font-weight="400" font-stretch="semi-condensed" font-size="41" transform="matrix(1 0 0 1 3217.35 1596)">0</text></g><g><text fill="#595959" font-family="Aptos Narrow,Aptos Narrow_MSFontService,sans-serif" font-weight="400" font-stretch="semi-condensed" font-size="41" transform="matrix(1 0 0 1 3341.91 1596)">10</text></g><g><text fill="#595959" font-family="Aptos Narrow,Aptos Narrow_MSFontService,sans-serif" font-weight="400" font-stretch="semi-condensed" font-size="41" transform="matrix(1 0 0 1 3476.91 1596)">20</text></g><g><text fill="#595959" font-family="Aptos Narrow,Aptos Narrow_MSFontService,sans-serif" font-weight="400" font-stretch="semi-condensed" font-size="41" transform="matrix(1 0 0 1 3611.92 1596)">30</text></g><g><text fill="#595959" font-family="Aptos Narrow,Aptos Narrow_MSFontService,sans-serif" font-weight="400" font-stretch="semi-condensed" font-size="41" transform="matrix(1 0 0 1 3746.93 1596)">40</text></g><g><text fill="#595959" font-family="Aptos Narrow,Aptos Narrow_MSFontService,sans-serif" font-weight="400" font-stretch="semi-condensed" font-size="41" transform="matrix(1 0 0 1 3881.94 1596)">50</text></g><g><text fill="#595959" font-family="Aptos Narrow,Aptos Narrow_MSFontService,sans-serif" font-weight="400" font-stretch="semi-condensed" font-size="41" transform="matrix(1 0 0 1 4016.95 1596)">60</text></g><g><text fill="#595959" font-family="Aptos Narrow,Aptos Narrow_MSFontService,sans-serif" font-weight="400" font-stretch="semi-condensed" font-size="41" transform="matrix(1 0 0 1 4151.96 1596)">70</text></g><g><text fill="#595959" font-family="Aptos Narrow,Aptos Narrow_MSFontService,sans-serif" font-weight="400" font-stretch="semi-condensed" font-size="41" transform="matrix(1 0 0 1 4286.97 1596)">80</text></g><g><text fill="#595959" font-family="Aptos Narrow,Aptos Narrow_MSFontService,sans-serif" font-weight="400" font-stretch="semi-condensed" font-size="41" transform="matrix(1 0 0 1 4421.98 1596)">90</text></g><g><text fill="#595959" font-family="Aptos Narrow,Aptos Narrow_MSFontService,sans-serif" font-weight="400" font-stretch="semi-condensed" font-size="41" transform="matrix(1 0 0 1 4546.54 1596)">100</text></g><g><text fill="#595959" font-family="Aptos Narrow,Aptos Narrow_MSFontService,sans-serif" font-weight="400" font-stretch="semi-condensed" font-size="46" transform="matrix(6.12323e-17 -1 1 6.12323e-17 3109.81 1329)">Tax rate (%)</text></g><g><text fill="#595959" font-family="Aptos Narrow,Aptos Narrow_MSFontService,sans-serif" font-weight="400" font-stretch="semi-condensed" font-size="46" transform="matrix(1 0 0 1 3683.89 1664)">Percentile for Net Worth</text></g><g><text fill="#595959" font-family="Aptos Narrow,Aptos Narrow_MSFontService,sans-serif" font-weight="400" font-stretch="semi-condensed" font-size="64" transform="matrix(1 0 0 1 3553.42 839)">Tax Rate vs. Net Worth</text></g><rect x="3010.5" y="744.5" width="1650" height="990" stroke="#D9D9D9" stroke-width="3.4375" stroke-linejoin="round" stroke-miterlimit="10" fill="none"/></g></svg>