<svg width="1650" height="990" xmlns="http://www.w3.org/2000/svg" xmlns:xlink="http://www.w3.org/1999/xlink" xml:space="preserve" overflow="hidden"><defs><clipPath id="clip0"><rect x="617" y="174" width="1650" height="990"/></clipPath></defs><g clip-path="url(#clip0)" transform="translate(-617 -174)"><rect x="617" y="174" width="1650" height="990" fill="#282828"/><g><path d="M802.5 837.528 2186.5 837.528M802.5 713.524 2186.5 713.524M802.5 590.52 2186.5 590.52M802.5 466.516 2186.5 466.516M802.5 343.5 2186.5 343.5" stroke="#D9D9D9" stroke-width="3.4375" stroke-linejoin="round" stroke-miterlimit="10" fill="none"/></g><g><path d="M802.5 960.5 2186.5 960.5" stroke="#D9D9D9" stroke-width="3.4375" stroke-linejoin="round" stroke-miterlimit="10" fill="none" fill-rule="evenodd"/></g><g><path d="M804 960 805.026 960 806.026 960 808.027 960 809.027 960 811.027 960 812.027 960 813.027 960 815.027 960 816.027 960 817.027 960 819.027 960 820.027 960 822.027 960 823.027 960 824.027 960 826.027 960 827.027 960 829.027 960 830.027 960 831.027 960 833.027 960 834.027 960 835.027 960 837.027 960 838.028 960 840.028 960 841.028 960 842.028 960 844.028 960 845.028 960 846.028 960 848.028 960 849.028 960 851.028 960 852.028 960 853.028 960 855.028 960 856.028 960 858.028 960 859.028 960 860.028 960 862.028 960 863.028 960 864.028 960 866.028 960 867.028 960 869.029 960 870.029 960 871.029 960 873.029 960 874.029 960 876.029 960 877.029 960 878.029 960 880.029 960 881.029 960 882.029 960 884.029 960 885.029 960 887.029 960 888.029 960 889.029 960 891.029 960 892.029 960 893.029 960 895.029 960 896.029 960 898.029 960 899.03 960 900.03 960 902.03 960 903.03 960 905.03 960 906.03 960 907.03 960 909.03 960 910.03 960 911.03 960 913.03 960 914.03 960 916.03 960 917.03 960 918.03 960 920.03 960 921.03 960 922.03 960 924.03 960 925.03 960 927.03 960 928.03 960 929.031 960 931.031 960 932.031 960 934.031 960 935.031 960 936.031 960 938.031 960 939.031 960 940.031 960 942.031 960 943.031 960 945.031 960 946.031 960 947.031 960 949.031 960 950.031 960 951.031 960 953.031 960 954.031 960 956.031 960 957.031 960 958.031 960 960.031 960 961.032 960 963.032 960 964.032 960 965.032 960 967.032 960 968.032 960 969.032 960 971.032 960 972.032 960 974.032 960 975.032 960 976.032 960 978.032 960 979.032 960 981.032 960 982.032 960 983.032 960 985.032 960 986.032 960 987.032 960 989.032 960 990.032 960 992.033 960 993.033 960 994.033 960 996.033 960 997.033 960 998.033 960 1000.03 960 1001.03 960 1003.03 960 1004.03 960 1005.03 960 1007.03 960 1008.03 960 1010.03 960 1011.03 960 1012.03 960 1014.03 960 1015.03 960 1016.03 960 1018.03 960 1019.03 960 1021.03 960 1022.03 960 1023.03 960 1025.03 960 1026.03 960 1027.03 960 1029.03 960 1030.03 960 1032.03 960 1033.03 960 1034.03 960 1036.03 960 1037.03 960 1039.03 960 1040.03 960 1041.03 960 1043.03 960 1044.03 960 1045.03 960 1047.03 960 1048.03 960 1050.03 960 1051.03 960 1052.03 960 1054.03 960 1055.03 960 1057.03 960 1058.03 960 1059.03 960 1061.03 960 1062.03 960 1063.03 960 1065.03 960 1066.04 960 1068.04 960 1069.04 960 1070.04 960 1072.04 960 1073.04 960 1074.04 960 1076.04 960 1077.04 960 1079.04 960 1080.04 960 1081.04 960 1083.04 960 1084.04 960 1086.04 960 1087.04 960 1088.04 960 1090.04 960 1091.04 960 1092.04 960 1094.04 960 1095.04 960 1097.04 960 1098.04 960 1099.04 960 1101.04 960 1102.04 960 1103.04 960 1105.04 960 1106.04 960 1108.04 960 1109.04 960 1110.04 960 1112.04 960 1113.04 960 1115.04 960 1116.04 960 1117.04 960 1119.04 960 1120.04 960 1121.04 960 1123.04 960 1124.04 960 1126.04 960 1127.04 960 1128.04 960 1130.04 960 1131.04 960 1132.04 960 1134.04 960 1135.04 960 1137.04 960 1138.04 960 1139.04 960 1141.04 960 1142.04 960 1144.04 960 1145.04 960 1146.04 960 1148.04 960 1149.04 960 1150.04 960 1152.04 960 1153.04 960 1155.04 960 1156.04 960 1157.04 960 1159.04 960 1160.04 960 1162.04 960 1163.04 960 1164.04 960 1166.04 960 1167.04 960 1168.04 960 1170.04 960 1171.04 960 1173.04 960 1174.04 960 1175.04 960 1177.04 960 1178.04 960 1179.04 960 1181.04 960 1182.04 960 1184.04 960 1185.04 960 1186.04 960 1188.04 960 1189.04 960 1191.04 960 1192.04 960 1193.04 960 1195.04 960 1196.04 960 1197.04 960 1199.04 960 1200.04 960 1202.04 960 1203.04 960 1204.04 960 1206.04 960 1207.04 960 1208.04 960 1210.04 960 1211.04 960 1213.04 960 1214.04 960 1215.04 960 1217.04 960 1218.04 960 1220.04 960 1221.04 960 1222.04 960 1224.04 960 1225.04 960 1226.04 960 1228.04 960 1229.04 960 1231.04 960 1232.04 960 1233.04 960 1235.04 960 1236.04 960 1237.04 960 1239.04 960 1240.04 960 1242.04 960 1243.04 960 1244.04 960 1246.04 960 1247.04 960 1249.04 960 1250.04 960 1251.04 960 1253.04 960 1254.04 960 1255.04 960 1257.04 960 1258.04 960 1260.04 960 1261.04 960 1262.04 960 1264.04 960 1265.04 960 1267.04 960 1268.04 960 1269.04 960 1271.04 960 1272.04 960 1273.04 960 1275.04 960 1276.04 960 1278.04 960 1279.04 960 1280.04 960 1282.04 960 1283.04 960 1284.04 960 1286.04 960 1287.04 960 1289.04 960 1290.04 960 1291.04 960 1293.04 960 1294.04 960 1296.04 960 1297.04 960 1298.04 960 1300.04 960 1301.04 960 1302.04 960 1304.04 960 1305.04 960 1307.04 960 1308.04 960 1309.04 960 1311.04 960 1312.04 960 1313.04 960 1315.04 960 1316.04 960 1318.04 960 1319.04 960 1320.04 960 1322.04 960 1323.04 960 1325.04 960 1326.04 960 1327.04 960 1329.04 960 1330.04 960 1331.04 960 1333.04 960 1334.04 960 1336.04 960 1337.04 960 1338.04 960 1340.04 960 1341.04 960 1343.04 960 1344.04 960 1345.04 960 1347.04 960 1348.04 960 1349.04 960 1351.04 960 1352.04 960 1354.04 960 1355.04 960 1356.04 960 1358.04 960 1359.04 960 1360.04 960 1362.04 960 1363.04 960 1365.04 960 1366.04 960 1367.04 960 1369.04 960 1370.04 960 1372.05 960 1373.05 960 1374.05 960 1376.05 960 1377.05 960 1378.05 960 1380.05 960 1381.05 960 1383.05 960 1384.05 960 1385.05 960 1387.05 960 1388.05 960 1389.05 960 1391.05 960 1392.05 960 1394.05 960 1395.05 960 1396.05 960 1398.05 960 1399.05 960 1401.05 960 1402.05 960 1403.05 960 1405.05 960 1406.05 960 1407.05 960 1409.05 960 1410.05 960 1412.05 960 1413.05 960 1414.05 960 1416.05 960 1417.05 960 1418.05 960 1420.05 960 1421.05 960 1423.05 960 1424.05 960 1425.05 960 1427.05 960 1428.05 960 1430.05 960 1431.05 960 1432.05 960 1434.05 960 1435.05 960 1436.05 960 1438.05 960 1439.05 960 1441.05 960 1442.05 960 1443.05 960 1445.05 960 1446.05 960 1448.05 960 1449.05 960 1450.05 960 1452.05 960 1453.05 960 1454.05 960 1456.05 960 1457.05 960 1459.05 960 1460.05 960 1461.05 960 1463.05 960 1464.05 960 1465.05 960 1467.05 960 1468.05 960 1470.05 960 1471.05 960 1472.05 960 1474.05 960 1475.05 960 1477.05 960 1478.05 960 1479.05 960 1481.05 960 1482.05 960 1483.05 960 1485.05 960 1486.05 960 1488.05 960 1489.05 960 1490.05 960 1492.05 960 1493.05 960 1494.05 960 1496.05 960 1497.05 960 1499.05 960 1500.05 960 1501.05 960 1503.05 960 1504.05 960 1506.05 960 1507.05 960 1508.05 960 1510.05 960 1511.05 960 1512.05 960 1514.05 960 1515.05 960 1517.05 960 1518.05 960 1519.05 960 1521.05 960 1522.05 960 1523.05 960 1525.05 960 1526.05 960 1528.05 960 1529.05 960 1530.05 960 1532.05 960 1533.05 960 1535.05 960 1536.05 960 1537.05 960 1539.05 960 1540.05 960 1541.05 960 1543.05 960 1544.05 960 1546.05 960 1547.05 960 1548.05 960 1550.05 960 1551.05 960 1553.05 960 1554.05 960 1555.05 960 1557.05 960 1558.05 960 1559.05 960 1561.05 960 1562.05 960 1564.05 960 1565.05 960 1566.05 960 1568.05 960 1569.05 960 1570.05 960 1572.05 960 1573.05 960 1575.05 960 1576.05 960 1577.05 960 1579.05 960 1580.05 960 1582.05 960 1583.05 960 1584.05 960 1586.05 960 1587.05 960 1588.05 960 1590.05 960 1591.05 960 1593.05 960 1594.05 960 1595.05 960 1597.05 960 1598.05 960 1599.05 960 1601.05 960 1602.05 960 1604.05 960 1605.05 960 1606.05 960 1608.05 960 1609.05 960 1611.05 960 1612.05 960 1613.05 960 1615.05 960 1616.05 960 1617.05 960 1619.05 960 1620.05 960 1622.05 960 1623.05 960 1624.05 960 1626.05 960 1627.05 960 1629.05 960 1630.05 960 1631.05 960 1633.05 960 1634.05 960 1635.05 960 1637.05 960 1638.05 960 1640.05 960 1641.05 960 1642.05 960 1644.05 960 1645.05 960 1646.05 960 1648.05 960 1649.05 960 1651.05 960 1652.05 960 1653.05 960 1655.05 960 1656.05 960 1658.05 960 1659.05 960 1660.05 960 1662.05 960 1663.05 960 1664.05 960 1666.05 960 1667.05 960 1669.05 960 1670.05 960 1671.05 960 1673.05 960 1674.05 960 1675.05 960 1677.06 960 1678.06 960 1680.06 960 1681.06 960 1682.06 960 1684.06 960 1685.06 960 1687.06 960 1688.06 960 1689.06 960 1691.06 960 1692.06 960 1693.06 960 1695.06 960 1696.06 960 1698.06 960 1699.06 960 1700.06 960 1702.06 960 1703.06 960 1704.06 960 1706.06 960 1707.06 960 1709.06 960 1710.06 960 1711.06 960 1713.06 960 1714.06 960 1716.06 960 1717.06 960 1718.06 960 1720.06 960 1721.06 960 1722.06 960 1724.06 960 1725.06 960 1727.06 960 1728.06 960 1729.06 960 1731.06 960 1732.06 960 1734.06 960 1735.06 960 1736.06 960 1738.06 960 1739.06 960 1740.06 960 1742.06 960 1743.06 960 1745.06 960 1746.06 960 1747.06 960 1749.06 960 1750.06 960 1751.06 960 1753.06 960 1754.06 960 1756.06 960 1757.06 960 1758.06 960 1760.06 960 1761.06 960 1763.06 960 1764.06 960 1765.06 960 1767.06 960 1768.06 960 1769.06 960 1771.06 960 1772.06 960 1774.06 960 1775.06 960 1776.06 960 1778.06 960 1779.06 960 1780.06 960 1782.06 960 1783.06 960 1785.06 960 1786.06 960 1787.06 960 1789.06 960 1790.06 960 1792.06 960 1793.06 960 1794.06 960 1796.06 960 1797.06 960 1798.06 960 1800.06 960 1801.06 960 1803.06 960 1804.06 960 1805.06 960 1807.06 960 1808.06 960 1809.06 960 1811.06 960 1812.06 960 1814.06 960 1815.06 960 1816.06 960 1818.06 960 1819.06 960 1821.06 960 1822.06 960 1823.06 960 1825.06 960 1826.06 960 1827.06 960 1829.06 960 1830.06 960 1832.06 960 1833.06 960 1834.06 960 1836.06 960 1837.06 960 1839.06 960 1840.06 960 1841.06 960 1843.06 960 1844.06 960 1845.06 960 1847.06 960 1848.06 960 1850.06 960 1851.06 960 1852.06 960 1854.06 960 1855.06 960 1856.06 960 1858.06 960 1859.06 960 1861.06 960 1862.06 960 1863.06 960 1865.06 960 1866.06 960 1868.06 960 1869.06 960 1870.06 960 1872.06 960 1873.06 960 1874.06 960 1876.06 960 1877.06 960 1879.06 960 1880.06 960 1881.06 960 1883.06 960 1884.06 960 1885.06 960 1887.06 960 1888.06 960 1890.06 960 1891.06 960 1892.06 960 1894.06 960 1895.06 960 1897.06 960 1898.06 960 1899.06 960 1901.06 960 1902.06 960 1903.06 960 1905.06 960 1906.06 960 1908.06 960 1909.06 960 1910.06 960 1912.06 960 1913.06 960 1915.06 960 1916.06 960 1917.06 960 1919.06 960 1920.06 960 1921.06 960 1923.06 960 1924.06 960 1926.06 960 1927.06 960 1928.06 960 1930.06 960 1931.06 960 1932.06 960 1934.06 960 1935.06 960 1937.06 960 1938.06 960 1939.06 960 1941.06 960 1942.06 960 1944.06 960 1945.06 960 1946.06 960 1948.06 960 1949.06 960 1950.06 960 1952.06 960 1953.06 960 1955.06 960 1956.06 960 1957.06 960 1959.06 960 1960.06 960 1961.06 960 1963.06 960 1964.06 960 1966.06 960 1967.06 960 1968.06 960 1970.06 960 1971.06 960 1973.06 960 1974.06 960 1975.06 960 1977.06 960 1978.06 960 1979.06 960 1981.06 960 1982.06 960 1984.07 960 1985.07 960 1986.07 960 1988.07 960 1989.07 960 1990.07 960 1992.07 960 1993.07 960 1995.07 960 1996.07 960 1997.07 960 1999.07 960 2000.07 960 2002.07 960 2003.07 960 2004.07 960 2006.07 960 2007.07 960 2008.07 960 2010.07 960 2011.07 960 2013.07 960 2014.07 960 2015.07 960 2017.07 960 2018.07 960 2020.07 960 2021.07 960 2022.07 960 2024.07 960 2025.07 960 2026.07 960 2028.07 960 2029.07 960 2031.07 960 2032.07 960 2033.07 960 2035.07 960 2036.07 960 2037.07 960 2039.07 960 2040.07 960 2042.07 960 2043.07 960 2044.07 960 2046.07 960 2047.07 960 2049.07 960 2050.07 960 2051.07 960 2053.07 960 2054.07 960 2055.07 960 2057.07 960 2058.07 960 2060.07 960 2061.07 960 2062.07 960 2064.07 960 2065.07 960 2066.07 960 2068.07 960 2069.07 960 2071.07 960 2072.07 960 2073.07 960 2075.07 960 2076.07 960 2078.07 960 2079.07 960 2080.07 960 2082.07 960 2083.07 960 2084.07 960 2086.07 960 2087.07 960 2089.07 960 2090.07 960 2091.07 960 2093.07 960 2094.07 960 2095.07 960 2097.07 960 2098.07 960 2100.07 960 2101.07 960 2102.07 960 2104.07 960 2105.07 960 2107.07 960 2108.07 960 2109.07 960 2111.07 960 2112.07 960 2113.07 960 2115.07 960 2116.07 590 2118.07 590 2119.07 590 2120.07 590 2122.07 590 2123.07 590 2125.07 590 2126.07 590 2127.07 590 2129.07 590 2130.07 590 2131.07 590 2133.07 590 2134.07 590 2136.07 590 2137.07 590 2138.07 590 2140.07 590 2141.07 590 2142.07 590 2144.07 590 2145.07 590 2147.07 590 2148.07 590 2149.07 590 2151.07 590 2152.07 590 2154.07 590 2155.07 590 2156.07 590 2158.07 590 2159.07 590 2160.07 590 2162.07 590 2163.07 590 2165.07 590 2166.07 590 2167.07 590 2169.07 590 2170.07 590 2171.07 590 2173.07 590 2174.07 590 2176.07 590 2177.07 590 2178.07 590 2180.07 590 2181.07 590 2183.07 590 2184.07 590 2185 590" stroke="#FFD700" stroke-width="10.3125" stroke-linecap="round" stroke-linejoin="round" stroke-miterlimit="10" fill="none"/></g><g><text fill="#FFFFFF" font-family="Aptos Narrow,Aptos Narrow_MSFontService,sans-serif" font-weight="400" font-stretch="semi-condensed" font-size="41" transform="matrix(1 0 0 1 744.012 972)">0</text></g><g><text fill="#FFFFFF" font-family="Aptos Narrow,Aptos Narrow_MSFontService,sans-serif" font-weight="400" font-stretch="semi-condensed" font-size="41" transform="matrix(1 0 0 1 744.012 849)">1</text></g><g><text fill="#FFFFFF" font-family="Aptos Narrow,Aptos Narrow_MSFontService,sans-serif" font-weight="400" font-stretch="semi-condensed" font-size="41" transform="matrix(1 0 0 1 744.012 725)">2</text></g><g><text fill="#FFFFFF" font-family="Aptos Narrow,Aptos Narrow_MSFontService,sans-serif" font-weight="400" font-stretch="semi-condensed" font-size="41" transform="matrix(1 0 0 1 744.012 602)">3</text></g><g><text fill="#FFFFFF" font-family="Aptos Narrow,Aptos Narrow_MSFontService,sans-serif" font-weight="400" font-stretch="semi-condensed" font-size="41" transform="matrix(1 0 0 1 744.012 479)">4</text></g><g><text fill="#FFFFFF" font-family="Aptos Narrow,Aptos Narrow_MSFontService,sans-serif" font-weight="400" font-stretch="semi-condensed" font-size="41" transform="matrix(1 0 0 1 744.012 355)">5</text></g><g><text fill="#FFFFFF" font-family="Aptos Narrow,Aptos Narrow_MSFontService,sans-serif" font-weight="400" font-stretch="semi-condensed" font-size="41" transform="matrix(1 0 0 1 793.237 1025)">0</text></g><g><text fill="#FFFFFF" font-family="Aptos Narrow,Aptos Narrow_MSFontService,sans-serif" font-weight="400" font-stretch="semi-condensed" font-size="41" transform="matrix(1 0 0 1 920.955 1025)">10</text></g><g><text fill="#FFFFFF" font-family="Aptos Narrow,Aptos Narrow_MSFontService,sans-serif" font-weight="400" font-stretch="semi-condensed" font-size="41" transform="matrix(1 0 0 1 1059.12 1025)">20</text></g><g><text fill="#FFFFFF" font-family="Aptos Narrow,Aptos Narrow_MSFontService,sans-serif" font-weight="400" font-stretch="semi-condensed" font-size="41" transform="matrix(1 0 0 1 1197.29 1025)">30</text></g><g><text fill="#FFFFFF" font-family="Aptos Narrow,Aptos Narrow_MSFontService,sans-serif" font-weight="400" font-stretch="semi-condensed" font-size="41" transform="matrix(1 0 0 1 1335.46 1025)">40</text></g><g><text fill="#FFFFFF" font-family="Aptos Narrow,Aptos Narrow_MSFontService,sans-serif" font-weight="400" font-stretch="semi-condensed" font-size="41" transform="matrix(1 0 0 1 1473.63 1025)">50</text></g><g><text fill="#FFFFFF" font-family="Aptos Narrow,Aptos Narrow_MSFontService,sans-serif" font-weight="400" font-stretch="semi-condensed" font-size="41" transform="matrix(1 0 0 1 1611.8 1025)">60</text></g><g><text fill="#FFFFFF" font-family="Aptos Narrow,Aptos Narrow_MSFontService,sans-serif" font-weight="400" font-stretch="semi-condensed" font-size="41" transform="matrix(1 0 0 1 1749.97 1025)">70</text></g><g><text fill="#FFFFFF" font-family="Aptos Narrow,Aptos Narrow_MSFontService,sans-serif" font-weight="400" font-stretch="semi-condensed" font-size="41" transform="matrix(1 0 0 1 1888.14 1025)">80</text></g><g><text fill="#FFFFFF" font-family="Aptos Narrow,Aptos Narrow_MSFontService,sans-serif" font-weight="400" font-stretch="semi-condensed" font-size="41" transform="matrix(1 0 0 1 2026.31 1025)">90</text></g><g><text fill="#FFFFFF" font-family="Aptos Narrow,Aptos Narrow_MSFontService,sans-serif" font-weight="400" font-stretch="semi-condensed" font-size="41" transform="matrix(1 0 0 1 2154.02 1025)">100</text></g><g><text fill="#FFFFFF" font-family="Aptos Narrow,Aptos Narrow_MSFontService,sans-serif" font-weight="400" font-stretch="semi-condensed" font-size="46" transform="matrix(6.12323e-17 -1 1 6.12323e-17 717.314 759)">Tax rate (%)</text></g><g><text fill="#FFFFFF" font-family="Aptos Narrow,Aptos Narrow_MSFontService,sans-serif" font-weight="400" font-stretch="semi-condensed" font-size="46" transform="matrix(1 0 0 1 1275.57 1093)">Percentile for Net Worth</text></g><g><text fill="#FFFFFF" font-family="Aptos Narrow,Aptos Narrow_MSFontService,sans-serif" font-weight="400" font-stretch="semi-condensed" font-size="64" transform="matrix(1 0 0 1 1160.92 268)">Tax Rate vs. Net Worth</text></g></g></svg>