<svg width="1653" height="993" xmlns="http://www.w3.org/2000/svg" xmlns:xlink="http://www.w3.org/1999/xlink" xml:space="preserve" overflow="hidden"><defs><clipPath id="clip0"><rect x="616" y="173" width="1653" height="993"/></clipPath></defs><g clip-path="url(#clip0)" transform="translate(-616 -173)"><rect x="617" y="174" width="1650" height="990" fill="#282828"/><g><path d="M823.5 877.529 2186.5 877.529M823.5 793.526 2186.5 793.526M823.5 710.523 2186.5 710.523M823.5 626.521 2186.5 626.521M823.5 543.518 2186.5 543.518M823.5 460.515 2186.5 460.515M823.5 376.5 2186.5 376.5" stroke="#D9D9D9" stroke-width="3.4375" stroke-linejoin="round" stroke-miterlimit="10" fill="none"/></g><g><path d="M823.5 960.5 2186.5 960.5" stroke="#D9D9D9" stroke-width="3.4375" stroke-linejoin="round" stroke-miterlimit="10" fill="none" fill-rule="evenodd"/></g><g><path d="M825 960 826.027 960 827.027 960 829.027 960 830.027 960 831.027 960 833.027 960 834.027 960 835.027 960 837.027 960 838.027 960 840.028 960 841.028 960 842.028 960 844.028 960 845.028 960 846.028 960 848.028 960 849.028 960 850.028 960 852.028 960 853.028 960 854.028 960 856.028 960 857.028 960 859.028 960 860.028 960 861.028 960 863.028 960 864.028 960 865.028 960 867.028 960 868.029 960 869.029 960 871.029 960 872.029 960 874.029 960 875.029 960 876.029 960 878.029 960 879.029 960 880.029 960 882.029 960 883.029 960 884.029 960 886.029 960 887.029 960 889.029 960 890.029 960 891.029 960 893.029 960 894.029 960 895.029 960 897.029 960 898.029 960 899.029 960 901.03 960 902.03 960 903.03 960 905.03 960 906.03 960 908.03 960 909.03 960 910.03 960 912.03 960 913.03 960 914.03 960 916.03 960 917.03 960 918.03 960 920.03 960 921.03 960 923.03 960 924.03 960 925.03 960 927.03 960 928.03 960 929.03 960 931.031 960 932.031 960 933.031 960 935.031 960 936.031 960 937.031 960 939.031 960 940.031 960 942.031 960 943.031 960 944.031 960 946.031 960 947.031 960 948.031 960 950.031 960 951.031 960 952.031 960 954.031 960 955.031 960 957.031 960 958.031 960 959.031 960 961.031 960 962.032 960 963.032 960 965.032 960 966.032 960 967.032 960 969.032 960 970.032 960 972.032 960 973.032 960 974.032 960 976.032 960 977.032 960 978.032 960 980.032 960 981.032 960 982.032 960 984.032 960 985.032 960 986.032 960 988.032 960 989.032 960 991.033 960 992.033 960 993.033 960 995.033 960 996.033 960 997.033 960 999.033 960 1000.03 960 1001.03 960 1003.03 960 1004.03 960 1006.03 960 1007.03 960 1008.03 960 1010.03 960 1011.03 960 1012.03 960 1014.03 960 1015.03 960 1016.03 960 1018.03 960 1019.03 960 1020.03 960 1022.03 960 1023.03 960 1025.03 960 1026.03 960 1027.03 960 1029.03 960 1030.03 960 1031.03 960 1033.03 960 1034.03 960 1035.03 960 1037.03 960 1038.03 960 1040.03 960 1041.03 960 1042.03 960 1044.03 960 1045.03 960 1046.03 960 1048.03 960 1049.03 960 1050.03 960 1052.03 960 1053.03 960 1055.03 960 1056.03 960 1057.03 960 1059.03 960 1060.03 960 1061.03 960 1063.03 960 1064.03 960 1065.03 960 1067.04 960 1068.04 960 1069.04 960 1071.04 960 1072.04 960 1074.04 960 1075.04 960 1076.04 960 1078.04 960 1079.04 960 1080.04 960 1082.04 960 1083.04 960 1084.04 960 1086.04 960 1087.04 960 1089.04 960 1090.04 960 1091.04 960 1093.04 960 1094.04 960 1095.04 960 1097.04 960 1098.04 960 1099.04 960 1101.04 960 1102.04 960 1104.04 960 1105.04 960 1106.04 960 1108.04 960 1109.04 960 1110.04 960 1112.04 960 1113.04 960 1114.04 960 1116.04 960 1117.04 960 1118.04 960 1120.04 960 1121.04 960 1123.04 960 1124.04 960 1125.04 960 1127.04 960 1128.04 960 1129.04 960 1131.04 960 1132.04 960 1133.04 960 1135.04 960 1136.04 960 1138.04 960 1139.04 960 1140.04 960 1142.04 960 1143.04 960 1144.04 960 1146.04 960 1147.04 960 1148.04 960 1150.04 960 1151.04 960 1152.04 960 1154.04 960 1155.04 960 1157.04 960 1158.04 960 1159.04 960 1161.04 960 1162.04 960 1163.04 960 1165.04 960 1166.04 960 1167.04 960 1169.04 960 1170.04 960 1172.04 960 1173.04 960 1174.04 960 1176.04 960 1177.04 960 1178.04 960 1180.04 960 1181.04 960 1182.04 960 1184.04 960 1185.04 960 1187.04 960 1188.04 960 1189.04 960 1191.04 960 1192.04 960 1193.04 960 1195.04 960 1196.04 960 1197.04 960 1199.04 960 1200.04 960 1201.04 960 1203.04 960 1204.04 960 1206.04 960 1207.04 960 1208.04 960 1210.04 960 1211.04 960 1212.04 960 1214.04 960 1215.04 960 1216.04 960 1218.04 960 1219.04 960 1221.04 960 1222.04 960 1223.04 960 1225.04 960 1226.04 960 1227.04 960 1229.04 960 1230.04 960 1231.04 960 1233.04 960 1234.04 960 1236.04 960 1237.04 960 1238.04 960 1240.04 960 1241.04 960 1242.04 960 1244.04 960 1245.04 960 1246.04 960 1248.04 960 1249.04 960 1250.04 960 1252.04 960 1253.04 960 1255.04 960 1256.04 960 1257.04 960 1259.04 960 1260.04 960 1261.04 960 1263.04 960 1264.04 960 1265.04 960 1267.04 960 1268.04 960 1270.04 960 1271.04 960 1272.04 960 1274.04 960 1275.04 960 1276.04 960 1278.04 960 1279.04 960 1280.04 960 1282.04 960 1283.04 960 1284.04 960 1286.04 960 1287.04 960 1289.04 960 1290.04 960 1291.04 960 1293.04 960 1294.04 960 1295.04 960 1297.04 960 1298.04 960 1299.04 960 1301.04 960 1302.04 960 1304.04 960 1305.04 960 1306.04 960 1308.04 960 1309.04 960 1310.04 960 1312.04 960 1313.04 960 1314.04 960 1316.04 960 1317.04 960 1319.04 960 1320.04 960 1321.04 960 1323.04 960 1324.04 960 1325.04 960 1327.04 960 1328.04 960 1329.04 960 1331.04 960 1332.04 960 1333.04 960 1335.04 960 1336.04 960 1338.04 960 1339.04 960 1340.04 960 1342.04 960 1343.04 960 1344.04 960 1346.04 960 1347.04 960 1348.04 960 1350.04 960 1351.04 960 1353.04 960 1354.04 960 1355.04 960 1357.04 960 1358.04 960 1359.04 960 1361.04 960 1362.04 960 1363.04 960 1365.04 960 1366.04 960 1367.04 960 1369.04 960 1370.04 960 1372.04 960 1373.05 960 1374.05 960 1376.05 960 1377.05 960 1378.05 960 1380.05 960 1381.05 960 1382.05 960 1384.05 960 1385.05 960 1387.05 960 1388.05 960 1389.05 960 1391.05 960 1392.05 960 1393.05 960 1395.05 960 1396.05 960 1397.05 960 1399.05 960 1400.05 960 1402.05 960 1403.05 960 1404.05 960 1406.05 960 1407.05 960 1408.05 960 1410.05 960 1411.05 960 1412.05 960 1414.05 960 1415.05 960 1416.05 960 1418.05 960 1419.05 960 1421.05 960 1422.05 960 1423.05 960 1425.05 960 1426.05 960 1427.05 960 1429.05 960 1430.05 960 1431.05 960 1433.05 960 1434.05 960 1436.05 960 1437.05 960 1438.05 960 1440.05 960 1441.05 960 1442.05 960 1444.05 960 1445.05 960 1446.05 960 1448.05 960 1449.05 960 1451.05 960 1452.05 960 1453.05 960 1455.05 960 1456.05 960 1457.05 960 1459.05 960 1460.05 960 1461.05 960 1463.05 960 1464.05 960 1465.05 960 1467.05 960 1468.05 960 1470.05 960 1471.05 960 1472.05 960 1474.05 960 1475.05 960 1476.05 960 1478.05 960 1479.05 960 1480.05 960 1482.05 960 1483.05 960 1485.05 960 1486.05 960 1487.05 960 1489.05 960 1490.05 960 1491.05 960 1493.05 960 1494.05 960 1495.05 960 1497.05 960 1498.05 960 1499.05 960 1501.05 960 1502.05 960 1504.05 960 1505.05 960 1506.05 960 1508.05 960 1509.05 960 1510.05 960 1512.05 960 1513.05 960 1514.05 960 1516.05 960 1517.05 960 1519.05 960 1520.05 960 1521.05 960 1523.05 960 1524.05 960 1525.05 960 1527.05 960 1528.05 960 1529.05 960 1531.05 960 1532.05 960 1534.05 960 1535.05 960 1536.05 960 1538.05 960 1539.05 960 1540.05 960 1542.05 960 1543.05 960 1544.05 960 1546.05 960 1547.05 960 1548.05 960 1550.05 960 1551.05 960 1553.05 960 1554.05 960 1555.05 960 1557.05 960 1558.05 960 1559.05 960 1561.05 960 1562.05 960 1563.05 960 1565.05 960 1566.05 960 1568.05 960 1569.05 960 1570.05 960 1572.05 960 1573.05 960 1574.05 960 1576.05 960 1577.05 960 1578.05 960 1580.05 960 1581.05 960 1582.05 960 1584.05 960 1585.05 960 1587.05 960 1588.05 960 1589.05 960 1591.05 960 1592.05 960 1593.05 960 1595.05 960 1596.05 960 1597.05 960 1599.05 960 1600.05 960 1602.05 960 1603.05 960 1604.05 960 1606.05 960 1607.05 960 1608.05 960 1610.05 960 1611.05 960 1612.05 960 1614.05 960 1615.05 960 1617.05 960 1618.05 960 1619.05 960 1621.05 960 1622.05 960 1623.05 960 1625.05 960 1626.05 960 1627.05 960 1629.05 960 1630.05 960 1631.05 960 1633.05 960 1634.05 960 1636.05 960 1637.05 960 1638.05 960 1640.05 960 1641.05 960 1642.05 960 1644.05 960 1645.05 960 1646.05 960 1648.05 960 1649.05 960 1651.05 960 1652.05 960 1653.05 960 1655.05 960 1656.05 960 1657.05 960 1659.05 960 1660.05 960 1661.05 960 1663.05 960 1664.05 960 1666.05 960 1667.05 960 1668.05 960 1670.05 960 1671.05 960 1672.05 960 1674.05 960 1675.05 960 1676.05 960 1678.06 960 1679.06 960 1680.06 960 1682.06 960 1683.06 960 1685.06 960 1686.06 960 1687.06 960 1689.06 960 1690.06 960 1691.06 960 1693.06 960 1694.06 960 1695.06 960 1697.06 960 1698.06 960 1700.06 960 1701.06 960 1702.06 960 1704.06 960 1705.06 960 1706.06 960 1708.06 960 1709.06 960 1710.06 960 1712.06 960 1713.06 960 1714.06 960 1716.06 960 1717.06 960 1719.06 960 1720.06 960 1721.06 960 1723.06 960 1724.06 960 1725.06 960 1727.06 960 1728.06 960 1729.06 960 1731.06 960 1732.06 960 1734.06 960 1735.06 960 1736.06 960 1738.06 960 1739.06 960 1740.06 960 1742.06 960 1743.06 960 1744.06 960 1746.06 960 1747.06 960 1749.06 960 1750.06 960 1751.06 960 1753.06 960 1754.06 960 1755.06 960 1757.06 960 1758.06 960 1759.06 960 1761.06 960 1762.06 960 1763.06 960 1765.06 960 1766.06 960 1768.06 960 1769.06 960 1770.06 960 1772.06 960 1773.06 960 1774.06 960 1776.06 960 1777.06 960 1778.06 960 1780.06 960 1781.06 960 1783.06 960 1784.06 960 1785.06 960 1787.06 960 1788.06 960 1789.06 960 1791.06 960 1792.06 960 1793.06 960 1795.06 960 1796.06 960 1797.06 960 1799.06 960 1800.06 960 1802.06 960 1803.06 960 1804.06 960 1806.06 960 1807.06 960 1808.06 960 1810.06 960 1811.06 960 1812.06 960 1814.06 960 1815.06 960 1817.06 960 1818.06 960 1819.06 960 1821.06 960 1822.06 960 1823.06 960 1825.06 960 1826.06 960 1827.06 960 1829.06 960 1830.06 960 1832.06 960 1833.06 960 1834.06 960 1836.06 960 1837.06 960 1838.06 960 1840.06 960 1841.06 960 1842.06 960 1844.06 960 1845.06 960 1846.06 960 1848.06 960 1849.06 960 1851.06 960 1852.06 960 1853.06 960 1855.06 960 1856.06 960 1857.06 960 1859.06 960 1860.06 960 1861.06 960 1863.06 960 1864.06 960 1866.06 960 1867.06 960 1868.06 960 1870.06 960 1871.06 960 1872.06 960 1874.06 960 1875.06 960 1876.06 960 1878.06 960 1879.06 960 1881.06 960 1882.06 960 1883.06 960 1885.06 960 1886.06 960 1887.06 960 1889.06 960 1890.06 960 1891.06 960 1893.06 960 1894.06 960 1895.06 960 1897.06 960 1898.06 960 1900.06 960 1901.06 960 1902.06 960 1904.06 960 1905.06 960 1906.06 960 1908.06 960 1909.06 960 1910.06 960 1912.06 960 1913.06 960 1915.06 960 1916.06 960 1917.06 960 1919.06 960 1920.06 960 1921.06 960 1923.06 960 1924.06 960 1925.06 960 1927.06 960 1928.06 960 1929.06 960 1931.06 960 1932.06 960 1934.06 960 1935.06 960 1936.06 960 1938.06 960 1939.06 960 1940.06 960 1942.06 960 1943.06 960 1944.06 960 1946.06 960 1947.06 960 1949.06 960 1950.06 960 1951.06 960 1953.06 960 1954.06 960 1955.06 960 1957.06 960 1958.06 960 1959.06 960 1961.06 960 1962.06 960 1964.06 960 1965.06 960 1966.06 960 1968.06 960 1969.06 960 1970.06 960 1972.06 960 1973.06 960 1974.06 960 1976.06 960 1977.06 960 1978.06 960 1980.06 960 1981.06 960 1983.07 960 1984.07 960 1985.07 960 1987.07 960 1988.07 960 1989.07 960 1991.07 960 1992.07 960 1993.07 960 1995.07 960 1996.07 960 1998.07 960 1999.07 960 2000.07 960 2002.07 960 2003.07 960 2004.07 960 2006.07 960 2007.07 960 2008.07 960 2010.07 960 2011.07 960 2012.07 960 2014.07 960 2015.07 960 2017.07 960 2018.07 960 2019.07 960 2021.07 960 2022.07 960 2023.07 960 2025.07 960 2026.07 960 2027.07 960 2029.07 960 2030.07 960 2032.07 960 2033.07 960 2034.07 960 2036.07 960 2037.07 960 2038.07 960 2040.07 960 2041.07 960 2042.07 960 2044.07 960 2045.07 960 2047.07 960 2048.07 960 2049.07 960 2051.07 960 2052.07 960 2053.07 960 2055.07 960 2056.07 960 2057.07 960 2059.07 960 2060.07 960 2061.07 960 2063.07 960 2064.07 960 2066.07 960 2067.07 960 2068.07 960 2070.07 960 2071.07 960 2072.07 960 2074.07 960 2075.07 960 2076.07 960 2078.07 960 2079.07 960 2081.07 960 2082.07 960 2083.07 960 2085.07 960 2086.07 960 2087.07 960 2089.07 960 2090.07 960 2091.07 960 2093.07 960 2094.07 960 2096.07 960 2097.07 960 2098.07 960 2100.07 960 2101.07 960 2102.07 960 2104.07 960 2105.07 960 2106.07 960 2108.07 960 2109.07 960 2110.07 960 2112.07 960 2113.07 960 2115.07 960 2116.07 960 2117.07 960 2119.07 960 2120.07 960 2121.07 960 2123.07 960 2124.07 960 2125.07 960 2127.07 960 2128.07 960 2130.07 960 2131.07 960 2132.07 960 2134.07 960 2135.07 960 2136.07 960 2138.07 960 2139.07 960 2140.07 960 2142.07 960 2143.07 960 2144.07 960 2146.07 960 2147.07 960 2149.07 960 2150.07 960 2151.07 960 2153.07 960 2154.07 960 2155.07 960 2157.07 960 2158.07 960 2159.07 960 2161.07 960 2162.07 960 2164.07 960 2165.07 960 2166.07 960 2168.07 960 2169.07 960 2170.07 960 2172.07 794 2173.07 794 2174.07 794 2176.07 794 2177.07 794 2179.07 794 2180.07 794 2181.07 794 2183.07 794 2184.07 794 2185 794" stroke="#FFD700" stroke-width="10.3125" stroke-linecap="round" stroke-linejoin="round" stroke-miterlimit="10" fill="none"/></g><g><text fill="#FFFFFF" font-family="Aptos Narrow,Aptos Narrow_MSFontService,sans-serif" font-weight="400" font-stretch="semi-condensed" font-size="41" transform="matrix(1 0 0 1 764.912 972)">0</text></g><g><text fill="#FFFFFF" font-family="Aptos Narrow,Aptos Narrow_MSFontService,sans-serif" font-weight="400" font-stretch="semi-condensed" font-size="41" transform="matrix(1 0 0 1 764.912 889)">5</text></g><g><text fill="#FFFFFF" font-family="Aptos Narrow,Aptos Narrow_MSFontService,sans-serif" font-weight="400" font-stretch="semi-condensed" font-size="41" transform="matrix(1 0 0 1 744.012 805)">10</text></g><g><text fill="#FFFFFF" font-family="Aptos Narrow,Aptos Narrow_MSFontService,sans-serif" font-weight="400" font-stretch="semi-condensed" font-size="41" transform="matrix(1 0 0 1 744.012 722)">15</text></g><g><text fill="#FFFFFF" font-family="Aptos Narrow,Aptos Narrow_MSFontService,sans-serif" font-weight="400" font-stretch="semi-condensed" font-size="41" transform="matrix(1 0 0 1 744.012 639)">20</text></g><g><text fill="#FFFFFF" font-family="Aptos Narrow,Aptos Narrow_MSFontService,sans-serif" font-weight="400" font-stretch="semi-condensed" font-size="41" transform="matrix(1 0 0 1 744.012 555)">25</text></g><g><text fill="#FFFFFF" font-family="Aptos Narrow,Aptos Narrow_MSFontService,sans-serif" font-weight="400" font-stretch="semi-condensed" font-size="41" transform="matrix(1 0 0 1 744.012 472)">30</text></g><g><text fill="#FFFFFF" font-family="Aptos Narrow,Aptos Narrow_MSFontService,sans-serif" font-weight="400" font-stretch="semi-condensed" font-size="41" transform="matrix(1 0 0 1 744.012 388)">35</text></g><g><text fill="#FFFFFF" font-family="Aptos Narrow,Aptos Narrow_MSFontService,sans-serif" font-weight="400" font-stretch="semi-condensed" font-size="41" transform="matrix(1 0 0 1 814.126 1025)">0</text></g><g><text fill="#FFFFFF" font-family="Aptos Narrow,Aptos Narrow_MSFontService,sans-serif" font-weight="400" font-stretch="semi-condensed" font-size="41" transform="matrix(1 0 0 1 939.757 1025)">10</text></g><g><text fill="#FFFFFF" font-family="Aptos Narrow,Aptos Narrow_MSFontService,sans-serif" font-weight="400" font-stretch="semi-condensed" font-size="41" transform="matrix(1 0 0 1 1075.84 1025)">20</text></g><g><text fill="#FFFFFF" font-family="Aptos Narrow,Aptos Narrow_MSFontService,sans-serif" font-weight="400" font-stretch="semi-condensed" font-size="41" transform="matrix(1 0 0 1 1211.92 1025)">30</text></g><g><text fill="#FFFFFF" font-family="Aptos Narrow,Aptos Narrow_MSFontService,sans-serif" font-weight="400" font-stretch="semi-condensed" font-size="41" transform="matrix(1 0 0 1 1348 1025)">40</text></g><g><text fill="#FFFFFF" font-family="Aptos Narrow,Aptos Narrow_MSFontService,sans-serif" font-weight="400" font-stretch="semi-condensed" font-size="41" transform="matrix(1 0 0 1 1484.08 1025)">50</text></g><g><text fill="#FFFFFF" font-family="Aptos Narrow,Aptos Narrow_MSFontService,sans-serif" font-weight="400" font-stretch="semi-condensed" font-size="41" transform="matrix(1 0 0 1 1620.16 1025)">60</text></g><g><text fill="#FFFFFF" font-family="Aptos Narrow,Aptos Narrow_MSFontService,sans-serif" font-weight="400" font-stretch="semi-condensed" font-size="41" transform="matrix(1 0 0 1 1756.24 1025)">70</text></g><g><text fill="#FFFFFF" font-family="Aptos Narrow,Aptos Narrow_MSFontService,sans-serif" font-weight="400" font-stretch="semi-condensed" font-size="41" transform="matrix(1 0 0 1 1892.32 1025)">80</text></g><g><text fill="#FFFFFF" font-family="Aptos Narrow,Aptos Narrow_MSFontService,sans-serif" font-weight="400" font-stretch="semi-condensed" font-size="41" transform="matrix(1 0 0 1 2028.4 1025)">90</text></g><g><text fill="#FFFFFF" font-family="Aptos Narrow,Aptos Narrow_MSFontService,sans-serif" font-weight="400" font-stretch="semi-condensed" font-size="41" transform="matrix(1 0 0 1 2154.04 1025)">100</text></g><g><text fill="#FFFFFF" font-family="Aptos Narrow,Aptos Narrow_MSFontService,sans-serif" font-weight="400" font-stretch="semi-condensed" font-size="46" transform="matrix(6.12323e-17 -1 1 6.12323e-17 717.314 759)">Tax rate (%)</text></g><g><text fill="#FFFFFF" font-family="Aptos Narrow,Aptos Narrow_MSFontService,sans-serif" font-weight="400" font-stretch="semi-condensed" font-size="46" transform="matrix(1 0 0 1 1286.02 1093)">Percentile for Net Worth</text></g><g><text fill="#FFFFFF" font-family="Aptos Narrow,Aptos Narrow_MSFontService,sans-serif" font-weight="400" font-stretch="semi-condensed" font-size="64" transform="matrix(1 0 0 1 1160.92 268)">Tax Rate vs. Net Worth</text></g><rect x="617.5" y="174.5" width="1650" height="990" stroke="#D9D9D9" stroke-width="3.4375" stroke-linejoin="round" stroke-miterlimit="10" fill="none"/></g></svg>