<svg width="1744" height="993" xmlns="http://www.w3.org/2000/svg" xmlns:xlink="http://www.w3.org/1999/xlink" xml:space="preserve" overflow="hidden"><defs><clipPath id="clip0"><rect x="616" y="173" width="1744" height="993"/></clipPath></defs><g clip-path="url(#clip0)" transform="translate(-616 -173)"><rect x="617" y="174" width="1741" height="990" fill="#282828"/><g><path d="M823.5 883.529 2277.5 883.529M823.5 806.527 2277.5 806.527M823.5 729.524 2277.5 729.524M823.5 651.522 2277.5 651.522M823.5 574.519 2277.5 574.519M823.5 497.517 2277.5 497.517M823.5 420.514 2277.5 420.514M823.5 343.5 2277.5 343.5" stroke="#D9D9D9" stroke-width="3.4375" stroke-linejoin="round" stroke-miterlimit="10" fill="none"/></g><g><path d="M823.5 960.5 2277.5 960.5" stroke="#D9D9D9" stroke-width="3.4375" stroke-linejoin="round" stroke-miterlimit="10" fill="none" fill-rule="evenodd"/></g><g><path d="M825 960 826.027 960 827.027 960 829.027 960 830.027 960 832.027 960 833.027 960 835.027 960 836.027 960 838.027 960 839.028 960 841.028 960 842.028 960 843.028 960 845.028 960 846.028 960 848.028 960 849.028 960 851.028 960 852.028 960 854.028 960 855.028 960 857.028 960 858.028 960 859.028 960 861.028 960 862.028 960 864.028 960 865.028 960 867.028 960 868.029 960 870.029 960 871.029 960 873.029 960 874.029 960 875.029 960 877.029 960 878.029 960 880.029 960 881.029 960 883.029 960 884.029 960 886.029 960 887.029 960 888.029 960 890.029 960 891.029 960 893.029 960 894.029 960 896.029 960 897.029 960 899.029 960 900.03 960 902.03 960 903.03 960 904.03 960 906.03 960 907.03 960 909.03 960 910.03 960 912.03 960 913.03 960 915.03 960 916.03 960 918.03 960 919.03 960 920.03 960 922.03 960 923.03 960 925.03 960 926.03 960 928.03 960 929.03 960 931.031 960 932.031 960 933.031 960 935.031 960 936.031 960 938.031 960 939.031 960 941.031 960 942.031 960 944.031 960 945.031 960 947.031 960 948.031 960 949.031 960 951.031 960 952.031 960 954.031 960 955.031 960 957.031 960 958.031 960 960.031 960 961.031 960 963.032 960 964.032 960 965.032 960 967.032 960 968.032 960 970.032 960 971.032 960 973.032 960 974.032 960 976.032 960 977.032 960 978.032 960 980.032 960 981.032 960 983.032 960 984.032 960 986.032 960 987.032 960 989.032 960 990.032 960 992.033 960 993.033 960 994.033 960 996.033 960 997.033 960 999.033 960 1000.03 960 1002.03 960 1003.03 960 1005.03 960 1006.03 960 1008.03 960 1009.03 960 1010.03 960 1012.03 960 1013.03 960 1015.03 960 1016.03 960 1018.03 960 1019.03 960 1021.03 960 1022.03 960 1023.03 960 1025.03 960 1026.03 960 1028.03 960 1029.03 960 1031.03 960 1032.03 960 1034.03 960 1035.03 960 1037.03 960 1038.03 960 1039.03 960 1041.03 960 1042.03 960 1044.03 960 1045.03 960 1047.03 960 1048.03 960 1050.03 960 1051.03 960 1053.03 960 1054.03 960 1055.03 960 1057.03 960 1058.03 960 1060.03 960 1061.03 960 1063.03 960 1064.03 960 1066.03 960 1067.04 960 1068.04 960 1070.04 960 1071.04 960 1073.04 960 1074.04 960 1076.04 960 1077.04 960 1079.04 960 1080.04 960 1082.04 960 1083.04 960 1084.04 960 1086.04 960 1087.04 960 1089.04 960 1090.04 960 1092.04 960 1093.04 960 1095.04 960 1096.04 960 1098.04 960 1099.04 960 1100.04 960 1102.04 960 1103.04 960 1105.04 960 1106.04 960 1108.04 960 1109.04 960 1111.04 960 1112.04 960 1114.04 960 1115.04 960 1116.04 960 1118.04 960 1119.04 960 1121.04 960 1122.04 960 1124.04 960 1125.04 960 1127.04 960 1128.04 960 1129.04 960 1131.04 960 1132.04 960 1134.04 960 1135.04 960 1137.04 960 1138.04 960 1140.04 960 1141.04 960 1143.04 960 1144.04 960 1145.04 960 1147.04 960 1148.04 960 1150.04 960 1151.04 960 1153.04 960 1154.04 960 1156.04 960 1157.04 960 1159.04 960 1160.04 960 1161.04 960 1163.04 960 1164.04 960 1166.04 960 1167.04 960 1169.04 960 1170.04 960 1172.04 960 1173.04 960 1174.04 960 1176.04 960 1177.04 960 1179.04 960 1180.04 960 1182.04 960 1183.04 960 1185.04 960 1186.04 960 1188.04 960 1189.04 960 1190.04 960 1192.04 960 1193.04 960 1195.04 960 1196.04 960 1198.04 960 1199.04 960 1201.04 960 1202.04 960 1204.04 960 1205.04 960 1206.04 960 1208.04 960 1209.04 960 1211.04 960 1212.04 960 1214.04 960 1215.04 960 1217.04 960 1218.04 960 1219.04 960 1221.04 960 1222.04 960 1224.04 960 1225.04 960 1227.04 960 1228.04 960 1230.04 960 1231.04 960 1233.04 960 1234.04 960 1235.04 960 1237.04 960 1238.04 960 1240.04 960 1241.04 960 1243.04 960 1244.04 960 1246.04 960 1247.04 960 1249.04 960 1250.04 960 1251.04 960 1253.04 960 1254.04 960 1256.04 960 1257.04 960 1259.04 960 1260.04 960 1262.04 960 1263.04 960 1264.04 960 1266.04 960 1267.04 960 1269.04 960 1270.04 960 1272.04 960 1273.04 960 1275.04 960 1276.04 960 1278.04 960 1279.04 960 1280.04 960 1282.04 960 1283.04 960 1285.04 960 1286.04 960 1288.04 960 1289.04 960 1291.04 960 1292.04 960 1294.04 960 1295.04 960 1296.04 960 1298.04 960 1299.04 960 1301.04 960 1302.04 960 1304.04 960 1305.04 960 1307.04 960 1308.04 960 1309.04 960 1311.04 960 1312.04 960 1314.04 960 1315.04 960 1317.04 960 1318.04 960 1320.04 960 1321.04 960 1323.04 960 1324.04 960 1325.04 960 1327.04 960 1328.04 960 1330.04 960 1331.04 960 1333.04 960 1334.04 960 1336.04 960 1337.04 960 1339.04 960 1340.04 960 1341.04 960 1343.04 960 1344.04 960 1346.04 960 1347.04 960 1349.04 960 1350.04 960 1352.04 960 1353.04 960 1355.04 960 1356.04 960 1357.04 960 1359.04 960 1360.04 960 1362.04 960 1363.04 960 1365.04 960 1366.04 960 1368.04 960 1369.04 960 1370.04 960 1372.04 960 1373.05 960 1375.05 960 1376.05 960 1378.05 960 1379.05 960 1381.05 960 1382.05 960 1384.05 960 1385.05 960 1386.05 960 1388.05 960 1389.05 960 1391.05 960 1392.05 960 1394.05 960 1395.05 960 1397.05 960 1398.05 960 1400.05 960 1401.05 960 1402.05 960 1404.05 960 1405.05 960 1407.05 960 1408.05 960 1410.05 960 1411.05 960 1413.05 960 1414.05 960 1415.05 960 1417.05 960 1418.05 960 1420.05 960 1421.05 960 1423.05 960 1424.05 960 1426.05 960 1427.05 960 1429.05 960 1430.05 960 1431.05 960 1433.05 960 1434.05 960 1436.05 960 1437.05 960 1439.05 960 1440.05 960 1442.05 960 1443.05 960 1445.05 960 1446.05 960 1447.05 960 1449.05 960 1450.05 960 1452.05 960 1453.05 960 1455.05 960 1456.05 960 1458.05 960 1459.05 960 1460.05 960 1462.05 960 1463.05 960 1465.05 960 1466.05 960 1468.05 960 1469.05 960 1471.05 960 1472.05 960 1474.05 960 1475.05 960 1476.05 960 1478.05 960 1479.05 960 1481.05 960 1482.05 960 1484.05 960 1485.05 960 1487.05 960 1488.05 960 1490.05 960 1491.05 960 1492.05 960 1494.05 960 1495.05 960 1497.05 960 1498.05 960 1500.05 960 1501.05 960 1503.05 960 1504.05 960 1505.05 960 1507.05 960 1508.05 960 1510.05 960 1511.05 960 1513.05 960 1514.05 960 1516.05 960 1517.05 960 1519.05 960 1520.05 960 1521.05 960 1523.05 960 1524.05 960 1526.05 960 1527.05 960 1529.05 960 1530.05 960 1532.05 960 1533.05 960 1535.05 960 1536.05 960 1537.05 960 1539.05 960 1540.05 960 1542.05 960 1543.05 960 1545.05 960 1546.05 960 1548.05 960 1549.05 960 1550.05 960 1552.05 960 1553.05 960 1555.05 960 1556.05 960 1558.05 960 1559.05 960 1561.05 960 1562.05 960 1564.05 960 1565.05 960 1566.05 960 1568.05 960 1569.05 960 1571.05 960 1572.05 960 1574.05 960 1575.05 960 1577.05 960 1578.05 960 1580.05 960 1581.05 960 1582.05 960 1584.05 960 1585.05 960 1587.05 960 1588.05 960 1590.05 960 1591.05 960 1593.05 960 1594.05 960 1596.05 960 1597.05 960 1598.05 960 1600.05 960 1601.05 960 1603.05 960 1604.05 960 1606.05 960 1607.05 960 1609.05 960 1610.05 960 1611.05 960 1613.05 960 1614.05 960 1616.05 960 1617.05 960 1619.05 960 1620.05 960 1622.05 960 1623.05 960 1625.05 960 1626.05 960 1627.05 960 1629.05 960 1630.05 960 1632.05 960 1633.05 960 1635.05 960 1636.05 960 1638.05 960 1639.05 960 1641.05 960 1642.05 960 1643.05 960 1645.05 960 1646.05 960 1648.05 960 1649.05 960 1651.05 960 1652.05 960 1654.05 960 1655.05 960 1656.05 960 1658.05 960 1659.05 960 1661.05 960 1662.05 960 1664.05 960 1665.05 960 1667.05 960 1668.05 960 1670.05 960 1671.05 960 1672.05 960 1674.05 960 1675.05 960 1677.05 960 1678.06 960 1680.06 960 1681.06 960 1683.06 960 1684.06 960 1686.06 960 1687.06 960 1688.06 960 1690.06 960 1691.06 960 1693.06 960 1694.06 960 1696.06 960 1697.06 960 1699.06 960 1700.06 960 1701.06 960 1703.06 960 1704.06 960 1706.06 960 1707.06 960 1709.06 960 1710.06 960 1712.06 960 1713.06 960 1715.06 960 1716.06 960 1717.06 960 1719.06 960 1720.06 960 1722.06 960 1723.06 960 1725.06 960 1726.06 960 1728.06 960 1729.06 960 1731.06 960 1732.06 960 1733.06 960 1735.06 960 1736.06 960 1738.06 960 1739.06 960 1741.06 960 1742.06 960 1744.06 960 1745.06 960 1746.06 960 1748.06 960 1749.06 960 1751.06 960 1752.06 960 1754.06 960 1755.06 960 1757.06 960 1758.06 960 1760.06 960 1761.06 960 1762.06 960 1764.06 960 1765.06 960 1767.06 960 1768.06 960 1770.06 960 1771.06 960 1773.06 960 1774.06 960 1776.06 960 1777.06 960 1778.06 960 1780.06 960 1781.06 960 1783.06 960 1784.06 960 1786.06 960 1787.06 960 1789.06 960 1790.06 960 1791.06 960 1793.06 960 1794.06 960 1796.06 960 1797.06 960 1799.06 960 1800.06 960 1802.06 960 1803.06 960 1805.06 960 1806.06 960 1807.06 960 1809.06 960 1810.06 960 1812.06 960 1813.06 960 1815.06 960 1816.06 960 1818.06 960 1819.06 960 1821.06 960 1822.06 960 1823.06 960 1825.06 960 1826.06 960 1828.06 960 1829.06 960 1831.06 960 1832.06 960 1834.06 960 1835.06 960 1837.06 960 1838.06 960 1839.06 960 1841.06 960 1842.06 960 1844.06 960 1845.06 960 1847.06 960 1848.06 960 1850.06 960 1851.06 960 1852.06 960 1854.06 960 1855.06 960 1857.06 960 1858.06 960 1860.06 960 1861.06 960 1863.06 960 1864.06 960 1866.06 960 1867.06 960 1868.06 960 1870.06 960 1871.06 960 1873.06 960 1874.06 960 1876.06 960 1877.06 960 1879.06 960 1880.06 960 1882.06 960 1883.06 960 1884.06 960 1886.06 960 1887.06 960 1889.06 960 1890.06 960 1892.06 960 1893.06 960 1895.06 960 1896.06 960 1897.06 960 1899.06 960 1900.06 960 1902.06 960 1903.06 960 1905.06 960 1906.06 960 1908.06 960 1909.06 960 1911.06 960 1912.06 960 1913.06 960 1915.06 960 1916.06 960 1918.06 960 1919.06 960 1921.06 960 1922.06 960 1924.06 960 1925.06 960 1927.06 960 1928.06 960 1929.06 960 1931.06 960 1932.06 960 1934.06 960 1935.06 960 1937.06 960 1938.06 960 1940.06 960 1941.06 960 1942.06 960 1944.06 960 1945.06 960 1947.06 960 1948.06 960 1950.06 960 1951.06 960 1953.06 960 1954.06 960 1956.06 960 1957.06 960 1958.06 960 1960.06 960 1961.06 960 1963.06 960 1964.06 960 1966.06 960 1967.06 960 1969.06 960 1970.06 960 1972.06 960 1973.06 960 1974.06 960 1976.06 960 1977.06 960 1979.06 960 1980.06 960 1982.07 960 1983.07 960 1985.07 960 1986.07 960 1987.07 960 1989.07 960 1990.07 960 1992.07 960 1993.07 960 1995.07 960 1996.07 960 1998.07 960 1999.07 960 2001.07 960 2002.07 960 2003.07 960 2005.07 960 2006.07 960 2008.07 960 2009.07 960 2011.07 960 2012.07 960 2014.07 960 2015.07 960 2017.07 960 2018.07 960 2019.07 960 2021.07 960 2022.07 960 2024.07 960 2025.07 960 2027.07 960 2028.07 960 2030.07 960 2031.07 960 2033.07 960 2034.07 960 2035.07 960 2037.07 960 2038.07 960 2040.07 960 2041.07 960 2043.07 960 2044.07 960 2046.07 960 2047.07 960 2048.07 960 2050.07 960 2051.07 960 2053.07 960 2054.07 960 2056.07 960 2057.07 960 2059.07 960 2060.07 960 2062.07 960 2063.07 960 2064.07 960 2066.07 960 2067.07 960 2069.07 960 2070.07 960 2072.07 960 2073.07 960 2075.07 960 2076.07 960 2078.07 960 2079.07 960 2080.07 960 2082.07 960 2083.07 960 2085.07 960 2086.07 960 2088.07 960 2089.07 960 2091.07 960 2092.07 960 2093.07 960 2095.07 960 2096.07 960 2098.07 960 2099.07 960 2101.07 960 2102.07 960 2104.07 960 2105.07 960 2107.07 960 2108.07 960 2109.07 960 2111.07 960 2112.07 960 2114.07 960 2115.07 960 2117.07 960 2118.07 960 2120.07 960 2121.07 960 2123.07 960 2124.07 960 2125.07 960 2127.07 960 2128.07 960 2130.07 960 2131.07 960 2133.07 960 2134.07 960 2136.07 960 2137.07 960 2138.07 960 2140.07 960 2141.07 960 2143.07 960 2144.07 960 2146.07 960 2147.07 960 2149.07 960 2150.07 960 2152.07 960 2153.07 960 2154.07 960 2156.07 960 2157.07 960 2159.07 960 2160.07 960 2162.07 960 2163.07 960 2165.07 960 2166.07 960 2168.07 960 2169.07 960 2170.07 960 2172.07 960 2173.07 960 2175.07 960 2176.07 960 2178.07 960 2179.07 960 2181.07 960 2182.07 960 2183.07 960 2185.07 960 2186.07 960 2188.07 960 2189.07 960 2191.07 960 2192.07 960 2194.07 960 2195.07 960 2197.07 960 2198.07 960 2199.07 960 2201.07 960 2202.07 960 2204.07 960 2205.07 960 2207.07 960 2208.07 960 2210.07 960 2211.07 960 2213.07 960 2214.07 960 2215.07 960 2217.07 960 2218.07 960 2220.07 960 2221.07 960 2223.07 960 2224.07 960 2226.07 960 2227.07 960 2228.07 960 2230.07 960 2231.07 960 2233.07 960 2234.07 960 2236.07 960 2237.07 960 2239.07 960 2240.07 960 2242.07 960 2243.07 960 2244.07 960 2246.07 960 2247.07 960 2249.07 960 2250.07 960 2252.07 960 2253.07 960 2255.07 960 2256.07 960 2258.07 960 2259.07 960 2260.07 960 2262.07 390 2263.07 390 2265.07 390 2266.07 390 2268.07 390 2269.07 390 2271.07 390 2272.07 390 2274.07 390 2275.07 390 2276 390" stroke="#FFD700" stroke-width="10.3125" stroke-linecap="round" stroke-linejoin="round" stroke-miterlimit="10" fill="none"/></g><g><text fill="#FFFFFF" font-family="Aptos Narrow,Aptos Narrow_MSFontService,sans-serif" font-weight="400" font-stretch="semi-condensed" font-size="41" transform="matrix(1 0 0 1 764.912 972)">0</text></g><g><text fill="#FFFFFF" font-family="Aptos Narrow,Aptos Narrow_MSFontService,sans-serif" font-weight="400" font-stretch="semi-condensed" font-size="41" transform="matrix(1 0 0 1 764.912 895)">5</text></g><g><text fill="#FFFFFF" font-family="Aptos Narrow,Aptos Narrow_MSFontService,sans-serif" font-weight="400" font-stretch="semi-condensed" font-size="41" transform="matrix(1 0 0 1 744.012 818)">10</text></g><g><text fill="#FFFFFF" font-family="Aptos Narrow,Aptos Narrow_MSFontService,sans-serif" font-weight="400" font-stretch="semi-condensed" font-size="41" transform="matrix(1 0 0 1 744.012 741)">15</text></g><g><text fill="#FFFFFF" font-family="Aptos Narrow,Aptos Narrow_MSFontService,sans-serif" font-weight="400" font-stretch="semi-condensed" font-size="41" transform="matrix(1 0 0 1 744.012 664)">20</text></g><g><text fill="#FFFFFF" font-family="Aptos Narrow,Aptos Narrow_MSFontService,sans-serif" font-weight="400" font-stretch="semi-condensed" font-size="41" transform="matrix(1 0 0 1 744.012 586)">25</text></g><g><text fill="#FFFFFF" font-family="Aptos Narrow,Aptos Narrow_MSFontService,sans-serif" font-weight="400" font-stretch="semi-condensed" font-size="41" transform="matrix(1 0 0 1 744.012 509)">30</text></g><g><text fill="#FFFFFF" font-family="Aptos Narrow,Aptos Narrow_MSFontService,sans-serif" font-weight="400" font-stretch="semi-condensed" font-size="41" transform="matrix(1 0 0 1 744.012 432)">35</text></g><g><text fill="#FFFFFF" font-family="Aptos Narrow,Aptos Narrow_MSFontService,sans-serif" font-weight="400" font-stretch="semi-condensed" font-size="41" transform="matrix(1 0 0 1 744.012 355)">40</text></g><g><text fill="#FFFFFF" font-family="Aptos Narrow,Aptos Narrow_MSFontService,sans-serif" font-weight="400" font-stretch="semi-condensed" font-size="41" transform="matrix(1 0 0 1 814.171 1025)">0</text></g><g><text fill="#FFFFFF" font-family="Aptos Narrow,Aptos Narrow_MSFontService,sans-serif" font-weight="400" font-stretch="semi-condensed" font-size="41" transform="matrix(1 0 0 1 948.907 1025)">10</text></g><g><text fill="#FFFFFF" font-family="Aptos Narrow,Aptos Narrow_MSFontService,sans-serif" font-weight="400" font-stretch="semi-condensed" font-size="41" transform="matrix(1 0 0 1 1094.09 1025)">20</text></g><g><text fill="#FFFFFF" font-family="Aptos Narrow,Aptos Narrow_MSFontService,sans-serif" font-weight="400" font-stretch="semi-condensed" font-size="41" transform="matrix(1 0 0 1 1239.28 1025)">30</text></g><g><text fill="#FFFFFF" font-family="Aptos Narrow,Aptos Narrow_MSFontService,sans-serif" font-weight="400" font-stretch="semi-condensed" font-size="41" transform="matrix(1 0 0 1 1384.46 1025)">40</text></g><g><text fill="#FFFFFF" font-family="Aptos Narrow,Aptos Narrow_MSFontService,sans-serif" font-weight="400" font-stretch="semi-condensed" font-size="41" transform="matrix(1 0 0 1 1529.65 1025)">50</text></g><g><text fill="#FFFFFF" font-family="Aptos Narrow,Aptos Narrow_MSFontService,sans-serif" font-weight="400" font-stretch="semi-condensed" font-size="41" transform="matrix(1 0 0 1 1674.84 1025)">60</text></g><g><text fill="#FFFFFF" font-family="Aptos Narrow,Aptos Narrow_MSFontService,sans-serif" font-weight="400" font-stretch="semi-condensed" font-size="41" transform="matrix(1 0 0 1 1820.02 1025)">70</text></g><g><text fill="#FFFFFF" font-family="Aptos Narrow,Aptos Narrow_MSFontService,sans-serif" font-weight="400" font-stretch="semi-condensed" font-size="41" transform="matrix(1 0 0 1 1965.21 1025)">80</text></g><g><text fill="#FFFFFF" font-family="Aptos Narrow,Aptos Narrow_MSFontService,sans-serif" font-weight="400" font-stretch="semi-condensed" font-size="41" transform="matrix(1 0 0 1 2110.39 1025)">90</text></g><g><text fill="#FFFFFF" font-family="Aptos Narrow,Aptos Narrow_MSFontService,sans-serif" font-weight="400" font-stretch="semi-condensed" font-size="41" transform="matrix(1 0 0 1 2245.13 1025)">100</text></g><g><text fill="#FFFFFF" font-family="Aptos Narrow,Aptos Narrow_MSFontService,sans-serif" font-weight="400" font-stretch="semi-condensed" font-size="46" transform="matrix(6.12323e-17 -1 1 6.12323e-17 717.314 759)">Tax rate (%)</text></g><g><text fill="#FFFFFF" font-family="Aptos Narrow,Aptos Narrow_MSFontService,sans-serif" font-weight="400" font-stretch="semi-condensed" font-size="46" transform="matrix(1 0 0 1 1331.59 1093)">Percentile for Net Worth</text></g><g><text fill="#FFFFFF" font-family="Aptos Narrow,Aptos Narrow_MSFontService,sans-serif" font-weight="400" font-stretch="semi-condensed" font-size="64" transform="matrix(1 0 0 1 840.308 268)">Required Minimum Dividend Tax Rate vs. Net Worth</text></g><rect x="617.5" y="174.5" width="1741" height="990" stroke="#D9D9D9" stroke-width="3.4375" stroke-linejoin="round" stroke-miterlimit="10" fill="none"/></g></svg>