<svg width="1744" height="993" xmlns="http://www.w3.org/2000/svg" xmlns:xlink="http://www.w3.org/1999/xlink" xml:space="preserve" overflow="hidden"><defs><clipPath id="clip0"><rect x="1145" y="437" width="1744" height="993"/></clipPath></defs><g clip-path="url(#clip0)" transform="translate(-1145 -437)"><rect x="1146" y="438" width="1741" height="990" fill="#282828"/><g><path d="M1353.5 1147.54 2806.5 1147.54M1353.5 1070.54 2806.5 1070.54M1353.5 993.533 2806.5 993.533M1353.5 916.53 2806.5 916.53M1353.5 839.528 2806.5 839.528M1353.5 762.525 2806.5 762.525M1353.5 685.523 2806.5 685.523M1353.5 608.5 2806.5 608.5" stroke="#D9D9D9" stroke-width="3.4375" stroke-linejoin="round" stroke-miterlimit="10" fill="none"/></g><g><path d="M1353.5 1225.5 2806.5 1225.5" stroke="#D9D9D9" stroke-width="3.4375" stroke-linejoin="round" stroke-miterlimit="10" fill="none" fill-rule="evenodd"/></g><g><path d="M1354 1225 1355.04 1225 1357.04 1225 1358.04 1225 1360.04 1225 1361.04 1225 1363.04 1225 1364.04 1225 1366.04 1225 1367.04 1225 1368.04 1225 1370.04 1225 1371.04 1225 1373.05 1225 1374.05 1225 1376.05 1225 1377.05 1225 1379.05 1225 1380.05 1225 1382.05 1225 1383.05 1225 1384.05 1225 1386.05 1225 1387.05 1225 1389.05 1225 1390.05 1225 1392.05 1225 1393.05 1225 1395.05 1225 1396.05 1225 1398.05 1225 1399.05 1225 1400.05 1225 1402.05 1225 1403.05 1225 1405.05 1225 1406.05 1225 1408.05 1225 1409.05 1225 1411.05 1225 1412.05 1225 1413.05 1225 1415.05 1225 1416.05 1225 1418.05 1225 1419.05 1225 1421.05 1225 1422.05 1225 1424.05 1225 1425.05 1225 1427.05 1225 1428.05 1225 1429.05 1225 1431.05 1225 1432.05 1225 1434.05 1225 1435.05 1225 1437.05 1225 1438.05 1225 1440.05 1225 1441.05 1225 1443.05 1225 1444.05 1225 1445.05 1225 1447.05 1225 1448.05 1225 1450.05 1225 1451.05 1225 1453.05 1225 1454.05 1225 1456.05 1225 1457.05 1225 1458.05 1225 1460.05 1225 1461.05 1225 1463.05 1225 1464.05 1225 1466.05 1225 1467.05 1225 1469.05 1225 1470.05 1225 1472.05 1225 1473.05 1225 1474.05 1225 1476.05 1225 1477.05 1225 1479.05 1225 1480.05 1225 1482.05 1225 1483.05 1225 1485.05 1225 1486.05 1225 1488.05 1225 1489.05 1225 1490.05 1225 1492.05 1225 1493.05 1225 1495.05 1225 1496.05 1225 1498.05 1225 1499.05 1225 1501.05 1225 1502.05 1225 1503.05 1225 1505.05 1225 1506.05 1225 1508.05 1225 1509.05 1225 1511.05 1225 1512.05 1225 1514.05 1225 1515.05 1225 1517.05 1225 1518.05 1225 1519.05 1225 1521.05 1225 1522.05 1225 1524.05 1225 1525.05 1225 1527.05 1225 1528.05 1225 1530.05 1225 1531.05 1225 1533.05 1225 1534.05 1225 1535.05 1225 1537.05 1225 1538.05 1225 1540.05 1225 1541.05 1225 1543.05 1225 1544.05 1225 1546.05 1225 1547.05 1225 1548.05 1225 1550.05 1225 1551.05 1225 1553.05 1225 1554.05 1225 1556.05 1225 1557.05 1225 1559.05 1225 1560.05 1225 1562.05 1225 1563.05 1225 1564.05 1225 1566.05 1225 1567.05 1225 1569.05 1225 1570.05 1225 1572.05 1225 1573.05 1225 1575.05 1225 1576.05 1225 1578.05 1225 1579.05 1225 1580.05 1225 1582.05 1225 1583.05 1225 1585.05 1225 1586.05 1225 1588.05 1225 1589.05 1225 1591.05 1225 1592.05 1225 1594.05 1225 1595.05 1225 1596.05 1225 1598.05 1225 1599.05 1225 1601.05 1225 1602.05 1225 1604.05 1225 1605.05 1225 1607.05 1225 1608.05 1225 1609.05 1225 1611.05 1225 1612.05 1225 1614.05 1225 1615.05 1225 1617.05 1225 1618.05 1225 1620.05 1225 1621.05 1225 1623.05 1225 1624.05 1225 1625.05 1225 1627.05 1225 1628.05 1225 1630.05 1225 1631.05 1225 1633.05 1225 1634.05 1225 1636.05 1225 1637.05 1225 1639.05 1225 1640.05 1225 1641.05 1225 1643.05 1225 1644.05 1225 1646.05 1225 1647.05 1225 1649.05 1225 1650.05 1225 1652.05 1225 1653.05 1225 1654.05 1225 1656.05 1225 1657.05 1225 1659.05 1225 1660.05 1225 1662.05 1225 1663.05 1225 1665.05 1225 1666.05 1225 1668.05 1225 1669.05 1225 1670.05 1225 1672.05 1225 1673.05 1225 1675.05 1225 1676.05 1225 1678.06 1225 1679.06 1225 1681.06 1225 1682.06 1225 1684.06 1225 1685.06 1225 1686.06 1225 1688.06 1225 1689.06 1225 1691.06 1225 1692.06 1225 1694.06 1225 1695.06 1225 1697.06 1225 1698.06 1225 1699.06 1225 1701.06 1225 1702.06 1225 1704.06 1225 1705.06 1225 1707.06 1225 1708.06 1225 1710.06 1225 1711.06 1225 1713.06 1225 1714.06 1225 1715.06 1225 1717.06 1225 1718.06 1225 1720.06 1225 1721.06 1225 1723.06 1225 1724.06 1225 1726.06 1225 1727.06 1225 1729.06 1225 1730.06 1225 1731.06 1225 1733.06 1225 1734.06 1225 1736.06 1225 1737.06 1225 1739.06 1225 1740.06 1225 1742.06 1225 1743.06 1225 1744.06 1225 1746.06 1225 1747.06 1225 1749.06 1225 1750.06 1225 1752.06 1225 1753.06 1225 1755.06 1225 1756.06 1225 1758.06 1225 1759.06 1225 1760.06 1225 1762.06 1225 1763.06 1225 1765.06 1225 1766.06 1225 1768.06 1225 1769.06 1225 1771.06 1225 1772.06 1225 1774.06 1225 1775.06 1225 1776.06 1225 1778.06 1225 1779.06 1225 1781.06 1225 1782.06 1225 1784.06 1225 1785.06 1225 1787.06 1225 1788.06 1225 1789.06 1225 1791.06 1225 1792.06 1225 1794.06 1225 1795.06 1225 1797.06 1225 1798.06 1225 1800.06 1225 1801.06 1225 1803.06 1225 1804.06 1225 1805.06 1225 1807.06 1225 1808.06 1225 1810.06 1225 1811.06 1225 1813.06 1225 1814.06 1225 1816.06 1225 1817.06 1225 1819.06 1225 1820.06 1225 1821.06 1225 1823.06 1225 1824.06 1225 1826.06 1225 1827.06 1225 1829.06 1225 1830.06 1225 1832.06 1225 1833.06 1225 1835.06 1225 1836.06 1225 1837.06 1225 1839.06 1225 1840.06 1225 1842.06 1225 1843.06 1225 1845.06 1225 1846.06 1225 1848.06 1225 1849.06 1225 1850.06 1225 1852.06 1225 1853.06 1225 1855.06 1225 1856.06 1225 1858.06 1225 1859.06 1225 1861.06 1225 1862.06 1225 1864.06 1225 1865.06 1225 1866.06 1225 1868.06 1225 1869.06 1225 1871.06 1225 1872.06 1225 1874.06 1225 1875.06 1225 1877.06 1225 1878.06 1225 1880.06 1225 1881.06 1225 1882.06 1225 1884.06 1225 1885.06 1225 1887.06 1225 1888.06 1225 1890.06 1225 1891.06 1225 1893.06 1225 1894.06 1225 1895.06 1225 1897.06 1225 1898.06 1225 1900.06 1225 1901.06 1225 1903.06 1225 1904.06 1225 1906.06 1225 1907.06 1225 1909.06 1225 1910.06 1225 1911.06 1225 1913.06 1225 1914.06 1225 1916.06 1225 1917.06 1225 1919.06 1225 1920.06 1225 1922.06 1225 1923.06 1225 1925.06 1225 1926.06 1225 1927.06 1225 1929.06 1225 1930.06 1225 1932.06 1225 1933.06 1225 1935.06 1225 1936.06 1225 1938.06 1225 1939.06 1225 1940.06 1225 1942.06 1225 1943.06 1225 1945.06 1225 1946.06 1225 1948.06 1225 1949.06 1225 1951.06 1225 1952.06 1225 1954.06 1225 1955.06 1225 1956.06 1225 1958.06 1225 1959.06 1225 1961.06 1225 1962.06 1225 1964.06 1225 1965.06 1225 1967.06 1225 1968.06 1225 1970.06 1225 1971.06 1225 1972.06 1225 1974.06 1225 1975.06 1225 1977.06 1225 1978.06 1225 1980.06 1225 1981.06 1225 1983.06 1225 1984.07 1225 1985.07 1225 1987.07 1225 1988.07 1225 1990.07 1225 1991.07 1225 1993.07 1225 1994.07 1225 1996.07 1225 1997.07 1225 1999.07 1225 2000.07 1225 2001.07 1225 2003.07 1225 2004.07 1225 2006.07 1225 2007.07 1225 2009.07 1225 2010.07 1225 2012.07 1225 2013.07 1225 2015.07 1225 2016.07 1225 2017.07 1225 2019.07 1225 2020.07 1225 2022.07 1225 2023.07 1225 2025.07 1225 2026.07 1225 2028.07 1225 2029.07 1225 2030.07 1225 2032.07 1225 2033.07 1225 2035.07 1225 2036.07 1225 2038.07 1225 2039.07 1225 2041.07 1225 2042.07 1225 2044.07 1225 2045.07 1225 2046.07 1225 2048.07 1225 2049.07 1225 2051.07 1225 2052.07 1225 2054.07 1225 2055.07 1225 2057.07 1225 2058.07 1225 2060.07 1225 2061.07 1225 2062.07 1225 2064.07 1225 2065.07 1225 2067.07 1225 2068.07 1225 2070.07 1225 2071.07 1225 2073.07 1225 2074.07 1225 2076.07 1225 2077.07 1225 2078.07 1225 2080.07 1225 2081.07 1225 2083.07 1225 2084.07 1225 2086.07 1225 2087.07 1225 2089.07 1225 2090.07 1225 2091.07 1225 2093.07 1225 2094.07 1225 2096.07 1225 2097.07 1225 2099.07 1225 2100.07 1225 2102.07 1225 2103.07 1225 2105.07 1225 2106.07 1225 2107.07 1225 2109.07 1225 2110.07 1225 2112.07 1225 2113.07 1225 2115.07 1225 2116.07 1225 2118.07 1225 2119.07 1225 2121.07 1225 2122.07 1225 2123.07 1225 2125.07 1225 2126.07 1225 2128.07 1225 2129.07 1225 2131.07 1225 2132.07 1225 2134.07 1225 2135.07 1225 2136.07 1225 2138.07 1225 2139.07 1225 2141.07 1225 2142.07 1225 2144.07 1225 2145.07 1225 2147.07 1225 2148.07 1225 2150.07 1225 2151.07 1225 2152.07 1225 2154.07 1225 2155.07 1225 2157.07 1225 2158.07 1225 2160.07 1225 2161.07 1225 2163.07 1225 2164.07 1225 2166.07 1225 2167.07 1225 2168.07 1225 2170.07 1225 2171.07 1225 2173.07 1225 2174.07 1225 2176.07 1225 2177.07 1225 2179.07 1225 2180.07 1225 2181.07 1225 2183.07 1225 2184.07 1225 2186.07 1225 2187.07 1225 2189.07 1225 2190.07 1225 2192.07 1225 2193.07 1225 2195.07 1225 2196.07 1225 2197.07 1225 2199.07 1225 2200.07 1225 2202.07 1225 2203.07 1225 2205.07 1225 2206.07 1225 2208.07 1225 2209.07 1225 2211.07 1225 2212.07 1225 2213.07 1225 2215.07 1225 2216.07 1225 2218.07 1225 2219.07 1225 2221.07 1225 2222.07 1225 2224.07 1225 2225.07 1225 2226.07 1225 2228.07 1225 2229.07 1225 2231.07 1225 2232.07 1225 2234.07 1225 2235.07 1225 2237.07 1225 2238.07 1225 2240.07 1225 2241.07 1225 2242.07 1225 2244.07 1225 2245.07 1225 2247.07 1225 2248.07 1225 2250.07 1225 2251.07 1225 2253.07 1225 2254.07 1225 2256.07 1225 2257.07 1225 2258.07 1225 2260.07 1225 2261.07 1225 2263.07 1225 2264.07 1225 2266.07 1225 2267.07 1225 2269.07 1225 2270.07 1225 2271.07 1225 2273.07 1225 2274.07 1225 2276.07 1225 2277.07 1225 2279.07 1225 2280.07 1225 2282.07 1225 2283.07 1225 2285.07 1225 2286.07 1225 2287.07 1225 2289.08 1225 2290.08 1225 2292.08 1225 2293.08 1225 2295.08 1225 2296.08 1225 2298.08 1225 2299.08 1225 2301.08 1225 2302.08 1225 2303.08 1225 2305.08 1225 2306.08 1225 2308.08 1225 2309.08 1225 2311.08 1225 2312.08 1225 2314.08 1225 2315.08 1225 2317.08 1225 2318.08 1225 2319.08 1225 2321.08 1225 2322.08 1225 2324.08 1225 2325.08 1225 2327.08 1225 2328.08 1225 2330.08 1225 2331.08 1225 2332.08 1225 2334.08 1225 2335.08 1225 2337.08 1225 2338.08 1225 2340.08 1225 2341.08 1225 2343.08 1225 2344.08 1225 2346.08 1225 2347.08 1225 2348.08 1225 2350.08 1225 2351.08 1225 2353.08 1225 2354.08 1225 2356.08 1225 2357.08 1225 2359.08 1225 2360.08 1225 2362.08 1225 2363.08 1225 2364.08 1225 2366.08 1225 2367.08 1225 2369.08 1225 2370.08 1225 2372.08 1225 2373.08 1225 2375.08 1225 2376.08 1225 2377.08 1225 2379.08 1225 2380.08 1225 2382.08 1225 2383.08 1225 2385.08 1225 2386.08 1225 2388.08 1225 2389.08 1225 2391.08 1225 2392.08 1225 2393.08 1225 2395.08 1225 2396.08 1225 2398.08 1225 2399.08 1225 2401.08 1225 2402.08 1225 2404.08 1225 2405.08 1225 2407.08 1225 2408.08 1225 2409.08 1225 2411.08 1225 2412.08 1225 2414.08 1225 2415.08 1225 2417.08 1225 2418.08 1225 2420.08 1225 2421.08 1225 2422.08 1225 2424.08 1225 2425.08 1225 2427.08 1225 2428.08 1225 2430.08 1225 2431.08 1225 2433.08 1225 2434.08 1225 2436.08 1225 2437.08 1225 2438.08 1225 2440.08 1225 2441.08 1225 2443.08 1225 2444.08 1225 2446.08 1225 2447.08 1225 2449.08 1225 2450.08 1225 2452.08 1225 2453.08 1225 2454.08 1225 2456.08 1225 2457.08 1225 2459.08 1225 2460.08 1225 2462.08 1225 2463.08 1225 2465.08 1225 2466.08 1225 2467.08 1225 2469.08 1225 2470.08 1225 2472.08 1225 2473.08 1225 2475.08 1225 2476.08 1225 2478.08 1225 2479.08 1225 2481.08 1225 2482.08 1225 2483.08 1225 2485.08 1225 2486.08 1225 2488.08 1225 2489.08 1225 2491.08 1225 2492.08 1225 2494.08 1225 2495.08 1225 2497.08 1225 2498.08 1225 2499.08 1225 2501.08 1225 2502.08 1225 2504.08 1225 2505.08 1225 2507.08 1225 2508.08 1225 2510.08 1225 2511.08 1225 2512.08 1225 2514.08 1225 2515.08 1225 2517.08 1225 2518.08 1225 2520.08 1225 2521.08 1225 2523.08 1225 2524.08 1225 2526.08 1225 2527.08 1225 2528.08 1225 2530.08 1225 2531.08 1225 2533.08 1225 2534.08 1225 2536.08 1225 2537.08 1225 2539.08 1225 2540.08 1225 2542.08 1225 2543.08 1225 2544.08 1225 2546.08 1225 2547.08 1225 2549.08 1225 2550.08 1225 2552.08 1225 2553.08 1225 2555.08 1225 2556.08 1225 2558.08 1225 2559.08 1225 2560.08 1225 2562.08 1225 2563.08 1225 2565.08 1225 2566.08 1225 2568.08 1225 2569.08 1225 2571.08 1225 2572.08 1225 2573.08 1225 2575.08 1225 2576.08 1225 2578.08 1225 2579.08 1225 2581.08 1225 2582.08 1225 2584.08 1225 2585.08 1225 2587.08 1225 2588.08 1225 2589.08 1225 2591.08 1225 2592.08 1225 2594.08 1225 2595.08 1225 2597.09 1225 2598.09 1225 2600.09 1225 2601.09 1225 2603.09 1225 2604.09 1225 2605.09 1225 2607.09 1225 2608.09 1225 2610.09 1225 2611.09 1225 2613.09 1225 2614.09 1225 2616.09 1225 2617.09 1225 2618.09 1225 2620.09 1225 2621.09 1225 2623.09 1225 2624.09 1225 2626.09 1225 2627.09 1225 2629.09 1225 2630.09 1225 2632.09 1225 2633.09 1225 2634.09 1225 2636.09 1225 2637.09 1225 2639.09 1225 2640.09 1225 2642.09 1225 2643.09 1225 2645.09 1225 2646.09 1225 2648.09 1225 2649.09 1225 2650.09 1225 2652.09 1225 2653.09 1225 2655.09 1225 2656.09 1225 2658.09 1225 2659.09 1225 2661.09 1225 2662.09 1225 2663.09 1225 2665.09 1225 2666.09 1225 2668.09 1225 2669.09 1225 2671.09 1225 2672.09 1225 2674.09 1225 2675.09 1225 2677.09 1225 2678.09 1225 2679.09 1225 2681.09 1225 2682.09 1225 2684.09 1225 2685.09 1225 2687.09 1225 2688.09 1225 2690.09 1225 2691.09 1225 2693.09 1225 2694.09 1225 2695.09 1225 2697.09 1225 2698.09 1225 2700.09 1225 2701.09 1225 2703.09 1225 2704.09 1225 2706.09 1225 2707.09 1225 2708.09 1225 2710.09 1225 2711.09 1225 2713.09 1225 2714.09 1225 2716.09 1225 2717.09 1225 2719.09 1225 2720.09 1225 2722.09 1225 2723.09 1225 2724.09 1225 2726.09 1225 2727.09 1225 2729.09 1225 2730.09 1225 2732.09 1225 2733.09 1225 2735.09 1225 2736.09 1225 2738.09 1225 2739.09 1225 2740.09 1225 2742.09 1225 2743.09 1225 2745.09 1225 2746.09 1225 2748.09 1225 2749.09 1225 2751.09 1225 2752.09 1225 2753.09 1225 2755.09 1225 2756.09 1225 2758.09 1225 2759.09 1225 2761.09 1225 2762.09 655 2764.09 655 2765.09 655 2767.09 655 2768.09 655 2769.09 655 2771.09 655 2772.09 655 2774.09 655 2775.09 655 2777.09 655 2778.09 655 2780.09 655 2781.09 655 2783.09 655 2784.09 655 2785.09 655 2787.09 655 2788.09 655 2790.09 655 2791.09 655 2793.09 655 2794.09 655 2796.09 655 2797.09 655 2799.09 655 2800.09 655 2801.09 655 2803.09 655 2804.09 655 2806 655" stroke="#FFD700" stroke-width="10.3125" stroke-linecap="round" stroke-linejoin="round" stroke-miterlimit="10" fill="none"/></g><g><text fill="#FFFFFF" font-family="Aptos Narrow,Aptos Narrow_MSFontService,sans-serif" font-weight="400" font-stretch="semi-condensed" font-size="41" transform="matrix(1 0 0 1 1294.29 1237)">0</text></g><g><text fill="#FFFFFF" font-family="Aptos Narrow,Aptos Narrow_MSFontService,sans-serif" font-weight="400" font-stretch="semi-condensed" font-size="41" transform="matrix(1 0 0 1 1294.29 1160)">5</text></g><g><text fill="#FFFFFF" font-family="Aptos Narrow,Aptos Narrow_MSFontService,sans-serif" font-weight="400" font-stretch="semi-condensed" font-size="41" transform="matrix(1 0 0 1 1273.39 1082)">10</text></g><g><text fill="#FFFFFF" font-family="Aptos Narrow,Aptos Narrow_MSFontService,sans-serif" font-weight="400" font-stretch="semi-condensed" font-size="41" transform="matrix(1 0 0 1 1273.39 1005)">15</text></g><g><text fill="#FFFFFF" font-family="Aptos Narrow,Aptos Narrow_MSFontService,sans-serif" font-weight="400" font-stretch="semi-condensed" font-size="41" transform="matrix(1 0 0 1 1273.39 928)">20</text></g><g><text fill="#FFFFFF" font-family="Aptos Narrow,Aptos Narrow_MSFontService,sans-serif" font-weight="400" font-stretch="semi-condensed" font-size="41" transform="matrix(1 0 0 1 1273.39 851)">25</text></g><g><text fill="#FFFFFF" font-family="Aptos Narrow,Aptos Narrow_MSFontService,sans-serif" font-weight="400" font-stretch="semi-condensed" font-size="41" transform="matrix(1 0 0 1 1273.39 774)">30</text></g><g><text fill="#FFFFFF" font-family="Aptos Narrow,Aptos Narrow_MSFontService,sans-serif" font-weight="400" font-stretch="semi-condensed" font-size="41" transform="matrix(1 0 0 1 1273.39 697)">35</text></g><g><text fill="#FFFFFF" font-family="Aptos Narrow,Aptos Narrow_MSFontService,sans-serif" font-weight="400" font-stretch="semi-condensed" font-size="41" transform="matrix(1 0 0 1 1273.39 620)">40</text></g><g><text fill="#FFFFFF" font-family="Aptos Narrow,Aptos Narrow_MSFontService,sans-serif" font-weight="400" font-stretch="semi-condensed" font-size="41" transform="matrix(1 0 0 1 1343.55 1290)">0</text></g><g><text fill="#FFFFFF" font-family="Aptos Narrow,Aptos Narrow_MSFontService,sans-serif" font-weight="400" font-stretch="semi-condensed" font-size="41" transform="matrix(1 0 0 1 1478.28 1290)">10</text></g><g><text fill="#FFFFFF" font-family="Aptos Narrow,Aptos Narrow_MSFontService,sans-serif" font-weight="400" font-stretch="semi-condensed" font-size="41" transform="matrix(1 0 0 1 1623.47 1290)">20</text></g><g><text fill="#FFFFFF" font-family="Aptos Narrow,Aptos Narrow_MSFontService,sans-serif" font-weight="400" font-stretch="semi-condensed" font-size="41" transform="matrix(1 0 0 1 1768.65 1290)">30</text></g><g><text fill="#FFFFFF" font-family="Aptos Narrow,Aptos Narrow_MSFontService,sans-serif" font-weight="400" font-stretch="semi-condensed" font-size="41" transform="matrix(1 0 0 1 1913.84 1290)">40</text></g><g><text fill="#FFFFFF" font-family="Aptos Narrow,Aptos Narrow_MSFontService,sans-serif" font-weight="400" font-stretch="semi-condensed" font-size="41" transform="matrix(1 0 0 1 2059.03 1290)">50</text></g><g><text fill="#FFFFFF" font-family="Aptos Narrow,Aptos Narrow_MSFontService,sans-serif" font-weight="400" font-stretch="semi-condensed" font-size="41" transform="matrix(1 0 0 1 2204.21 1290)">60</text></g><g><text fill="#FFFFFF" font-family="Aptos Narrow,Aptos Narrow_MSFontService,sans-serif" font-weight="400" font-stretch="semi-condensed" font-size="41" transform="matrix(1 0 0 1 2349.4 1290)">70</text></g><g><text fill="#FFFFFF" font-family="Aptos Narrow,Aptos Narrow_MSFontService,sans-serif" font-weight="400" font-stretch="semi-condensed" font-size="41" transform="matrix(1 0 0 1 2494.58 1290)">80</text></g><g><text fill="#FFFFFF" font-family="Aptos Narrow,Aptos Narrow_MSFontService,sans-serif" font-weight="400" font-stretch="semi-condensed" font-size="41" transform="matrix(1 0 0 1 2639.77 1290)">90</text></g><g><text fill="#FFFFFF" font-family="Aptos Narrow,Aptos Narrow_MSFontService,sans-serif" font-weight="400" font-stretch="semi-condensed" font-size="41" transform="matrix(1 0 0 1 2774.5 1290)">100</text></g><g><text fill="#FFFFFF" font-family="Aptos Narrow,Aptos Narrow_MSFontService,sans-serif" font-weight="400" font-stretch="semi-condensed" font-size="46" transform="matrix(6.12323e-17 -1 1 6.12323e-17 1246.69 1023)">Tax rate (%)</text></g><g><text fill="#FFFFFF" font-family="Aptos Narrow,Aptos Narrow_MSFontService,sans-serif" font-weight="400" font-stretch="semi-condensed" font-size="46" transform="matrix(1 0 0 1 1848.91 1358)">Percentile for Market Cap</text></g><g><text fill="#FFFFFF" font-family="Aptos Narrow,Aptos Narrow_MSFontService,sans-serif" font-weight="400" font-stretch="semi-condensed" font-size="64" transform="matrix(1 0 0 1 1352.82 533)">Required Minimum Dividend Tax Rate vs. Market Cap</text></g><rect x="1146.5" y="438.5" width="1741" height="990" stroke="#D9D9D9" stroke-width="3.4375" stroke-linejoin="round" stroke-miterlimit="10" fill="none"/></g></svg>